%TF.GenerationSoftware,KiCad,Pcbnew,10.0.3*%
%TF.CreationDate,2026-07-31T06:59:30+02:00*%
%TF.ProjectId,essai_opt,65737361-695f-46f7-9074-2e6b69636164,rev?*%
%TF.SameCoordinates,Original*%
%TF.FileFunction,Legend,Bot*%
%TF.FilePolarity,Positive*%
%FSLAX46Y46*%
G04 Gerber Fmt 4.6, Leading zero omitted, Abs format (unit mm)*
G04 Created by KiCad (PCBNEW 10.0.3) date 2026-07-31 06:59:30*
%MOMM*%
%LPD*%
G01*
G04 APERTURE LIST*
%ADD10C,0.150000*%
%ADD11C,0.125000*%
%ADD12C,0.120000*%
G04 APERTURE END LIST*
D10*
X119543149Y-114963762D02*
X118543149Y-114963762D01*
X118543149Y-114963762D02*
X119257434Y-115297095D01*
X119257434Y-115297095D02*
X118543149Y-115630428D01*
X118543149Y-115630428D02*
X119543149Y-115630428D01*
X118543149Y-116106619D02*
X119352672Y-116106619D01*
X119352672Y-116106619D02*
X119447910Y-116154238D01*
X119447910Y-116154238D02*
X119495530Y-116201857D01*
X119495530Y-116201857D02*
X119543149Y-116297095D01*
X119543149Y-116297095D02*
X119543149Y-116487571D01*
X119543149Y-116487571D02*
X119495530Y-116582809D01*
X119495530Y-116582809D02*
X119447910Y-116630428D01*
X119447910Y-116630428D02*
X119352672Y-116678047D01*
X119352672Y-116678047D02*
X118543149Y-116678047D01*
X118543149Y-117059000D02*
X119543149Y-117725666D01*
X118543149Y-117725666D02*
X119543149Y-117059000D01*
X119543149Y-118630428D02*
X119543149Y-118059000D01*
X119543149Y-118344714D02*
X118543149Y-118344714D01*
X118543149Y-118344714D02*
X118686006Y-118249476D01*
X118686006Y-118249476D02*
X118781244Y-118154238D01*
X118781244Y-118154238D02*
X118828863Y-118059000D01*
X134761904Y-142454819D02*
X134761904Y-143264342D01*
X134761904Y-143264342D02*
X134714285Y-143359580D01*
X134714285Y-143359580D02*
X134666666Y-143407200D01*
X134666666Y-143407200D02*
X134571428Y-143454819D01*
X134571428Y-143454819D02*
X134380952Y-143454819D01*
X134380952Y-143454819D02*
X134285714Y-143407200D01*
X134285714Y-143407200D02*
X134238095Y-143359580D01*
X134238095Y-143359580D02*
X134190476Y-143264342D01*
X134190476Y-143264342D02*
X134190476Y-142454819D01*
X133761904Y-142550057D02*
X133714285Y-142502438D01*
X133714285Y-142502438D02*
X133619047Y-142454819D01*
X133619047Y-142454819D02*
X133380952Y-142454819D01*
X133380952Y-142454819D02*
X133285714Y-142502438D01*
X133285714Y-142502438D02*
X133238095Y-142550057D01*
X133238095Y-142550057D02*
X133190476Y-142645295D01*
X133190476Y-142645295D02*
X133190476Y-142740533D01*
X133190476Y-142740533D02*
X133238095Y-142883390D01*
X133238095Y-142883390D02*
X133809523Y-143454819D01*
X133809523Y-143454819D02*
X133190476Y-143454819D01*
D11*
X129309524Y-141785023D02*
X128928571Y-141785023D01*
X129385714Y-142013595D02*
X129119047Y-141213595D01*
X129119047Y-141213595D02*
X128852381Y-142013595D01*
X128585714Y-141480261D02*
X128585714Y-142013595D01*
X128585714Y-141556452D02*
X128547619Y-141518357D01*
X128547619Y-141518357D02*
X128471429Y-141480261D01*
X128471429Y-141480261D02*
X128357143Y-141480261D01*
X128357143Y-141480261D02*
X128280952Y-141518357D01*
X128280952Y-141518357D02*
X128242857Y-141594547D01*
X128242857Y-141594547D02*
X128242857Y-142013595D01*
X127976190Y-141480261D02*
X127671428Y-141480261D01*
X127861904Y-141213595D02*
X127861904Y-141899309D01*
X127861904Y-141899309D02*
X127823809Y-141975500D01*
X127823809Y-141975500D02*
X127747619Y-142013595D01*
X127747619Y-142013595D02*
X127671428Y-142013595D01*
X127099999Y-141975500D02*
X127176190Y-142013595D01*
X127176190Y-142013595D02*
X127328571Y-142013595D01*
X127328571Y-142013595D02*
X127404761Y-141975500D01*
X127404761Y-141975500D02*
X127442857Y-141899309D01*
X127442857Y-141899309D02*
X127442857Y-141594547D01*
X127442857Y-141594547D02*
X127404761Y-141518357D01*
X127404761Y-141518357D02*
X127328571Y-141480261D01*
X127328571Y-141480261D02*
X127176190Y-141480261D01*
X127176190Y-141480261D02*
X127099999Y-141518357D01*
X127099999Y-141518357D02*
X127061904Y-141594547D01*
X127061904Y-141594547D02*
X127061904Y-141670738D01*
X127061904Y-141670738D02*
X127442857Y-141746928D01*
X126719047Y-141480261D02*
X126719047Y-142013595D01*
X126719047Y-141556452D02*
X126680952Y-141518357D01*
X126680952Y-141518357D02*
X126604762Y-141480261D01*
X126604762Y-141480261D02*
X126490476Y-141480261D01*
X126490476Y-141480261D02*
X126414285Y-141518357D01*
X126414285Y-141518357D02*
X126376190Y-141594547D01*
X126376190Y-141594547D02*
X126376190Y-142013595D01*
X125995237Y-141480261D02*
X125995237Y-142013595D01*
X125995237Y-141556452D02*
X125957142Y-141518357D01*
X125957142Y-141518357D02*
X125880952Y-141480261D01*
X125880952Y-141480261D02*
X125766666Y-141480261D01*
X125766666Y-141480261D02*
X125690475Y-141518357D01*
X125690475Y-141518357D02*
X125652380Y-141594547D01*
X125652380Y-141594547D02*
X125652380Y-142013595D01*
X124928570Y-142013595D02*
X124928570Y-141594547D01*
X124928570Y-141594547D02*
X124966665Y-141518357D01*
X124966665Y-141518357D02*
X125042856Y-141480261D01*
X125042856Y-141480261D02*
X125195237Y-141480261D01*
X125195237Y-141480261D02*
X125271427Y-141518357D01*
X124928570Y-141975500D02*
X125004761Y-142013595D01*
X125004761Y-142013595D02*
X125195237Y-142013595D01*
X125195237Y-142013595D02*
X125271427Y-141975500D01*
X125271427Y-141975500D02*
X125309523Y-141899309D01*
X125309523Y-141899309D02*
X125309523Y-141823119D01*
X125309523Y-141823119D02*
X125271427Y-141746928D01*
X125271427Y-141746928D02*
X125195237Y-141708833D01*
X125195237Y-141708833D02*
X125004761Y-141708833D01*
X125004761Y-141708833D02*
X124928570Y-141670738D01*
X123976189Y-141785023D02*
X123595236Y-141785023D01*
X124052379Y-142013595D02*
X123785712Y-141213595D01*
X123785712Y-141213595D02*
X123519046Y-142013595D01*
X123252379Y-142013595D02*
X123252379Y-141480261D01*
X123252379Y-141632642D02*
X123214284Y-141556452D01*
X123214284Y-141556452D02*
X123176189Y-141518357D01*
X123176189Y-141518357D02*
X123099998Y-141480261D01*
X123099998Y-141480261D02*
X123023808Y-141480261D01*
X122452379Y-141975500D02*
X122528570Y-142013595D01*
X122528570Y-142013595D02*
X122680951Y-142013595D01*
X122680951Y-142013595D02*
X122757141Y-141975500D01*
X122757141Y-141975500D02*
X122795237Y-141899309D01*
X122795237Y-141899309D02*
X122795237Y-141594547D01*
X122795237Y-141594547D02*
X122757141Y-141518357D01*
X122757141Y-141518357D02*
X122680951Y-141480261D01*
X122680951Y-141480261D02*
X122528570Y-141480261D01*
X122528570Y-141480261D02*
X122452379Y-141518357D01*
X122452379Y-141518357D02*
X122414284Y-141594547D01*
X122414284Y-141594547D02*
X122414284Y-141670738D01*
X122414284Y-141670738D02*
X122795237Y-141746928D01*
X121728570Y-142013595D02*
X121728570Y-141594547D01*
X121728570Y-141594547D02*
X121766665Y-141518357D01*
X121766665Y-141518357D02*
X121842856Y-141480261D01*
X121842856Y-141480261D02*
X121995237Y-141480261D01*
X121995237Y-141480261D02*
X122071427Y-141518357D01*
X121728570Y-141975500D02*
X121804761Y-142013595D01*
X121804761Y-142013595D02*
X121995237Y-142013595D01*
X121995237Y-142013595D02*
X122071427Y-141975500D01*
X122071427Y-141975500D02*
X122109523Y-141899309D01*
X122109523Y-141899309D02*
X122109523Y-141823119D01*
X122109523Y-141823119D02*
X122071427Y-141746928D01*
X122071427Y-141746928D02*
X121995237Y-141708833D01*
X121995237Y-141708833D02*
X121804761Y-141708833D01*
X121804761Y-141708833D02*
X121728570Y-141670738D01*
%TO.C,MUX1*%
D12*
X109828330Y-114013286D02*
X109828330Y-119533286D01*
X109828330Y-119533286D02*
X110003330Y-119533286D01*
X110003330Y-114013286D02*
X109828330Y-114013286D01*
X118073330Y-119533286D02*
X118248330Y-119533286D01*
X118248330Y-114013286D02*
X118073330Y-114013286D01*
X118248330Y-119533286D02*
X118248330Y-114013286D01*
X118078330Y-120273286D02*
X118548330Y-120613286D01*
X118548330Y-119933286D01*
X118078330Y-120273286D01*
G36*
X118548330Y-120613286D02*
G01*
X118078330Y-120273286D01*
X118548330Y-119933286D01*
X118548330Y-120613286D01*
G37*
%TO.C,U2*%
X118700000Y-127300000D02*
X119500000Y-127300000D01*
X118700000Y-128100000D02*
X118700000Y-127300000D01*
X118900000Y-127500000D02*
X118900000Y-144100000D01*
X118900000Y-138700000D02*
X132100000Y-138700000D01*
X118900000Y-144100000D02*
X132100000Y-144100000D01*
X119575000Y-144300000D02*
X118725000Y-144300000D01*
X131550000Y-144300000D02*
X132300000Y-144300000D01*
X132100000Y-127500000D02*
X118900000Y-127500000D01*
X132100000Y-144100000D02*
X132100000Y-127500000D01*
X132300000Y-127300000D02*
X131500000Y-127300000D01*
X132300000Y-128100000D02*
X132300000Y-127300000D01*
X132300000Y-144300000D02*
X132300000Y-143700000D01*
%TD*%
M02*
