%TF.GenerationSoftware,KiCad,Pcbnew,10.0.3*%
%TF.CreationDate,2026-07-31T06:59:30+02:00*%
%TF.ProjectId,essai_opt,65737361-695f-46f7-9074-2e6b69636164,rev?*%
%TF.SameCoordinates,Original*%
%TF.FileFunction,Soldermask,Top*%
%TF.FilePolarity,Negative*%
%FSLAX46Y46*%
G04 Gerber Fmt 4.6, Leading zero omitted, Abs format (unit mm)*
G04 Created by KiCad (PCBNEW 10.0.3) date 2026-07-31 06:59:30*
%MOMM*%
%LPD*%
G01*
G04 APERTURE LIST*
G04 Aperture macros list*
%AMRoundRect*
0 Rectangle with rounded corners*
0 $1 Rounding radius*
0 $2 $3 $4 $5 $6 $7 $8 $9 X,Y pos of 4 corners*
0 Add a 4 corners polygon primitive as box body*
4,1,4,$2,$3,$4,$5,$6,$7,$8,$9,$2,$3,0*
0 Add four circle primitives for the rounded corners*
1,1,$1+$1,$2,$3*
1,1,$1+$1,$4,$5*
1,1,$1+$1,$6,$7*
1,1,$1+$1,$8,$9*
0 Add four rect primitives between the rounded corners*
20,1,$1+$1,$2,$3,$4,$5,0*
20,1,$1+$1,$4,$5,$6,$7,0*
20,1,$1+$1,$6,$7,$8,$9,0*
20,1,$1+$1,$8,$9,$2,$3,0*%
G04 Aperture macros list end*
%ADD10RoundRect,0.225000X0.250000X-0.225000X0.250000X0.225000X-0.250000X0.225000X-0.250000X-0.225000X0*%
%ADD11RoundRect,0.150000X-0.150000X0.512500X-0.150000X-0.512500X0.150000X-0.512500X0.150000X0.512500X0*%
%ADD12RoundRect,0.150000X0.150000X0.750000X-0.150000X0.750000X-0.150000X-0.750000X0.150000X-0.750000X0*%
%ADD13RoundRect,0.250000X1.050000X1.250000X-1.050000X1.250000X-1.050000X-1.250000X1.050000X-1.250000X0*%
%ADD14RoundRect,0.250000X0.275000X0.250000X-0.275000X0.250000X-0.275000X-0.250000X0.275000X-0.250000X0*%
%ADD15RoundRect,0.250000X0.850000X0.275000X-0.850000X0.275000X-0.850000X-0.275000X0.850000X-0.275000X0*%
%ADD16RoundRect,0.200000X-0.200000X-0.275000X0.200000X-0.275000X0.200000X0.275000X-0.200000X0.275000X0*%
%ADD17RoundRect,0.225000X-0.225000X-0.250000X0.225000X-0.250000X0.225000X0.250000X-0.225000X0.250000X0*%
%ADD18RoundRect,0.218750X-0.256250X0.218750X-0.256250X-0.218750X0.256250X-0.218750X0.256250X0.218750X0*%
%ADD19RoundRect,0.225000X-0.250000X0.225000X-0.250000X-0.225000X0.250000X-0.225000X0.250000X0.225000X0*%
%ADD20RoundRect,0.200000X-0.275000X0.200000X-0.275000X-0.200000X0.275000X-0.200000X0.275000X0.200000X0*%
%ADD21RoundRect,0.218750X-0.218750X-0.256250X0.218750X-0.256250X0.218750X0.256250X-0.218750X0.256250X0*%
%ADD22RoundRect,0.250000X0.350000X0.625000X-0.350000X0.625000X-0.350000X-0.625000X0.350000X-0.625000X0*%
%ADD23O,1.200000X1.750000*%
%ADD24RoundRect,0.200000X0.275000X-0.200000X0.275000X0.200000X-0.275000X0.200000X-0.275000X-0.200000X0*%
%ADD25RoundRect,0.175000X0.725000X0.175000X-0.725000X0.175000X-0.725000X-0.175000X0.725000X-0.175000X0*%
%ADD26RoundRect,0.200000X0.700000X0.200000X-0.700000X0.200000X-0.700000X-0.200000X0.700000X-0.200000X0*%
G04 APERTURE END LIST*
%TO.C,J2*%
G36*
X97400000Y-133160000D02*
G01*
X99490000Y-133160000D01*
X99490000Y-135040000D01*
X97400000Y-135040000D01*
X97400000Y-133160000D01*
G37*
%TD*%
D10*
%TO.C,C4*%
X96000000Y-113050000D03*
X96000000Y-111500000D03*
%TD*%
D11*
%TO.C,Regulator1*%
X107450000Y-125362500D03*
X106500000Y-125362500D03*
X105550000Y-125362500D03*
X105550000Y-127637500D03*
X107450000Y-127637500D03*
%TD*%
D12*
%TO.C,J1*%
X131500000Y-109375000D03*
X130500000Y-109375000D03*
X129500000Y-109375000D03*
X128500000Y-109375000D03*
X127500000Y-109375000D03*
X126500000Y-109375000D03*
X125500000Y-109375000D03*
X124500000Y-109375000D03*
X123500000Y-109375000D03*
X122500000Y-109375000D03*
X121500000Y-109375000D03*
X120500000Y-109375000D03*
X119500000Y-109375000D03*
X118500000Y-109375000D03*
X117500000Y-109375000D03*
X116500000Y-109375000D03*
X115500000Y-109375000D03*
X114500000Y-109375000D03*
X113500000Y-109375000D03*
X112500000Y-109375000D03*
D13*
X133850000Y-107205000D03*
X110150000Y-107205000D03*
%TD*%
D14*
%TO.C,J2*%
X100025000Y-134100000D03*
D15*
X98500000Y-135575000D03*
X98500000Y-132625000D03*
%TD*%
D16*
%TO.C,R2*%
X102350000Y-118412500D03*
X104000000Y-118412500D03*
%TD*%
D17*
%TO.C,C3*%
X111725000Y-131000000D03*
X113275000Y-131000000D03*
%TD*%
D18*
%TO.C,FB1*%
X97675000Y-137812500D03*
X97675000Y-139387500D03*
%TD*%
D19*
%TO.C,C5*%
X102000000Y-124725000D03*
X102000000Y-126275000D03*
%TD*%
D20*
%TO.C,R1*%
X100706974Y-119117045D03*
X100706974Y-120767045D03*
%TD*%
D16*
%TO.C,R7*%
X99350000Y-139200000D03*
X101000000Y-139200000D03*
%TD*%
D21*
%TO.C,D1*%
X102387500Y-120050000D03*
X103962500Y-120050000D03*
%TD*%
D16*
%TO.C,R5*%
X115175000Y-140700000D03*
X116825000Y-140700000D03*
%TD*%
D19*
%TO.C,C2*%
X105500000Y-112725000D03*
X105500000Y-114275000D03*
%TD*%
D16*
%TO.C,R4*%
X124175000Y-126000000D03*
X125825000Y-126000000D03*
%TD*%
D22*
%TO.C,J3*%
X100019897Y-107758669D03*
D23*
X98019897Y-107758669D03*
%TD*%
D10*
%TO.C,C6*%
X111500000Y-126275000D03*
X111500000Y-124725000D03*
%TD*%
D17*
%TO.C,C7*%
X99400000Y-141100000D03*
X100950000Y-141100000D03*
%TD*%
D24*
%TO.C,R3*%
X117000000Y-131825000D03*
X117000000Y-130175000D03*
%TD*%
D25*
%TO.C,GPS1*%
X113000000Y-143700000D03*
D26*
X113000000Y-142600000D03*
X113000000Y-141500000D03*
X113000000Y-140400000D03*
X113000000Y-139300000D03*
X113000000Y-138200000D03*
X113000000Y-137100000D03*
X113000000Y-136000000D03*
D25*
X113000000Y-134900000D03*
X103500000Y-134900000D03*
D26*
X103500000Y-136000000D03*
X103500000Y-137100000D03*
X103500000Y-138200000D03*
X103500000Y-139300000D03*
X103500000Y-140400000D03*
X103500000Y-141500000D03*
X103500000Y-142600000D03*
D25*
X103500000Y-143700000D03*
%TD*%
D11*
%TO.C,Recharge1*%
X101450000Y-112362500D03*
X100500000Y-112362500D03*
X99550000Y-112362500D03*
X99550000Y-114637500D03*
X101450000Y-114637500D03*
%TD*%
D16*
%TO.C,R6*%
X115949220Y-143947235D03*
X117599220Y-143947235D03*
%TD*%
M02*
