%TF.GenerationSoftware,KiCad,Pcbnew,10.0.3*%
%TF.CreationDate,2026-07-31T06:59:30+02:00*%
%TF.ProjectId,essai_opt,65737361-695f-46f7-9074-2e6b69636164,rev?*%
%TF.SameCoordinates,Original*%
%TF.FileFunction,Soldermask,Bot*%
%TF.FilePolarity,Negative*%
%FSLAX46Y46*%
G04 Gerber Fmt 4.6, Leading zero omitted, Abs format (unit mm)*
G04 Created by KiCad (PCBNEW 10.0.3) date 2026-07-31 06:59:30*
%MOMM*%
%LPD*%
G01*
G04 APERTURE LIST*
G04 Aperture macros list*
%AMRoundRect*
0 Rectangle with rounded corners*
0 $1 Rounding radius*
0 $2 $3 $4 $5 $6 $7 $8 $9 X,Y pos of 4 corners*
0 Add a 4 corners polygon primitive as box body*
4,1,4,$2,$3,$4,$5,$6,$7,$8,$9,$2,$3,0*
0 Add four circle primitives for the rounded corners*
1,1,$1+$1,$2,$3*
1,1,$1+$1,$4,$5*
1,1,$1+$1,$6,$7*
1,1,$1+$1,$8,$9*
0 Add four rect primitives between the rounded corners*
20,1,$1+$1,$2,$3,$4,$5,0*
20,1,$1+$1,$4,$5,$6,$7,0*
20,1,$1+$1,$6,$7,$8,$9,0*
20,1,$1+$1,$8,$9,$2,$3,0*%
%AMFreePoly0*
4,1,6,0.725000,-0.725000,-0.125000,-0.725000,-0.725000,-0.125000,-0.725000,0.725000,0.725000,0.725000,0.725000,-0.725000,0.725000,-0.725000,$1*%
G04 Aperture macros list end*
%ADD10RoundRect,0.250000X0.350000X0.625000X-0.350000X0.625000X-0.350000X-0.625000X0.350000X-0.625000X0*%
%ADD11O,1.200000X1.750000*%
%ADD12RoundRect,0.100000X0.100000X-0.850000X0.100000X0.850000X-0.100000X0.850000X-0.100000X-0.850000X0*%
%ADD13R,0.800000X0.400000*%
%ADD14R,0.400000X0.800000*%
%ADD15R,1.450000X1.450000*%
%ADD16FreePoly0,0.000000*%
%ADD17R,0.700000X0.700000*%
G04 APERTURE END LIST*
D10*
%TO.C,J3*%
X100019897Y-107758669D03*
D11*
X98019897Y-107758669D03*
%TD*%
D12*
%TO.C,MUX1*%
X117613330Y-120273286D03*
X116963330Y-120273286D03*
X116313330Y-120273286D03*
X115663330Y-120273286D03*
X115013330Y-120273286D03*
X114363330Y-120273286D03*
X113713330Y-120273286D03*
X113063330Y-120273286D03*
X112413330Y-120273286D03*
X111763330Y-120273286D03*
X111113330Y-120273286D03*
X110463330Y-120273286D03*
X110463330Y-113273286D03*
X111113330Y-113273286D03*
X111763330Y-113273286D03*
X112413330Y-113273286D03*
X113063330Y-113273286D03*
X113713330Y-113273286D03*
X114363330Y-113273286D03*
X115013330Y-113273286D03*
X115663330Y-113273286D03*
X116313330Y-113273286D03*
X116963330Y-113273286D03*
X117613330Y-113273286D03*
%TD*%
D13*
%TO.C,U2*%
X119600000Y-137100000D03*
X119600000Y-136300000D03*
X119600000Y-135500000D03*
X119600000Y-134700000D03*
X119600000Y-133900000D03*
X119600000Y-133100000D03*
X119600000Y-132300000D03*
X119600000Y-131500000D03*
X119600000Y-130700000D03*
X119600000Y-129900000D03*
X119600000Y-129100000D03*
D14*
X120700000Y-128200000D03*
X121500000Y-128200000D03*
X122300000Y-128200000D03*
X123100000Y-128200000D03*
X123900000Y-128200000D03*
X124700000Y-128200000D03*
X125500000Y-128200000D03*
X126300000Y-128200000D03*
X127100000Y-128200000D03*
X127900000Y-128200000D03*
X128700000Y-128200000D03*
X129500000Y-128200000D03*
X130300000Y-128200000D03*
D13*
X131400000Y-129100000D03*
X131400000Y-129900000D03*
X131400000Y-130700000D03*
X131400000Y-131500000D03*
X131400000Y-132300000D03*
X131400000Y-133100000D03*
X131400000Y-133900000D03*
X131400000Y-134700000D03*
X131400000Y-135500000D03*
X131400000Y-136300000D03*
X131400000Y-137100000D03*
D14*
X130300000Y-138000000D03*
X129500000Y-138000000D03*
X128700000Y-138000000D03*
X127900000Y-138000000D03*
X127100000Y-138000000D03*
X126300000Y-138000000D03*
X125500000Y-138000000D03*
X124700000Y-138000000D03*
X123900000Y-138000000D03*
X123100000Y-138000000D03*
X122300000Y-138000000D03*
X121500000Y-138000000D03*
X120700000Y-138000000D03*
D15*
X123525000Y-131125000D03*
X123525000Y-133100000D03*
D16*
X123525000Y-135075000D03*
D15*
X125500000Y-131125000D03*
X125500000Y-133100000D03*
X125500000Y-135075000D03*
X127475000Y-131125000D03*
X127475000Y-133100000D03*
X127475000Y-135075000D03*
D17*
X131450000Y-138050000D03*
X131450000Y-128150000D03*
X119550000Y-128150000D03*
X119550000Y-138050000D03*
%TD*%
M02*
