%TF.GenerationSoftware,KiCad,Pcbnew,10.0.3*%
%TF.CreationDate,2026-07-31T06:59:30+02:00*%
%TF.ProjectId,essai_opt,65737361-695f-46f7-9074-2e6b69636164,rev?*%
%TF.SameCoordinates,Original*%
%TF.FileFunction,Legend,Top*%
%TF.FilePolarity,Positive*%
%FSLAX46Y46*%
G04 Gerber Fmt 4.6, Leading zero omitted, Abs format (unit mm)*
G04 Created by KiCad (PCBNEW 10.0.3) date 2026-07-31 06:59:30*
%MOMM*%
%LPD*%
G01*
G04 APERTURE LIST*
%ADD10C,0.125000*%
%ADD11C,0.150000*%
%ADD12C,0.120000*%
G04 APERTURE END LIST*
D10*
X95866667Y-115287404D02*
X95828571Y-115325500D01*
X95828571Y-115325500D02*
X95714286Y-115363595D01*
X95714286Y-115363595D02*
X95638095Y-115363595D01*
X95638095Y-115363595D02*
X95523809Y-115325500D01*
X95523809Y-115325500D02*
X95447619Y-115249309D01*
X95447619Y-115249309D02*
X95409524Y-115173119D01*
X95409524Y-115173119D02*
X95371428Y-115020738D01*
X95371428Y-115020738D02*
X95371428Y-114906452D01*
X95371428Y-114906452D02*
X95409524Y-114754071D01*
X95409524Y-114754071D02*
X95447619Y-114677880D01*
X95447619Y-114677880D02*
X95523809Y-114601690D01*
X95523809Y-114601690D02*
X95638095Y-114563595D01*
X95638095Y-114563595D02*
X95714286Y-114563595D01*
X95714286Y-114563595D02*
X95828571Y-114601690D01*
X95828571Y-114601690D02*
X95866667Y-114639785D01*
X96552381Y-114830261D02*
X96552381Y-115363595D01*
X96361905Y-114525500D02*
X96171428Y-115096928D01*
X96171428Y-115096928D02*
X96666667Y-115096928D01*
X100733333Y-132063595D02*
X100733333Y-132635023D01*
X100733333Y-132635023D02*
X100695238Y-132749309D01*
X100695238Y-132749309D02*
X100619047Y-132825500D01*
X100619047Y-132825500D02*
X100504762Y-132863595D01*
X100504762Y-132863595D02*
X100428571Y-132863595D01*
X101076190Y-132139785D02*
X101114286Y-132101690D01*
X101114286Y-132101690D02*
X101190476Y-132063595D01*
X101190476Y-132063595D02*
X101380952Y-132063595D01*
X101380952Y-132063595D02*
X101457143Y-132101690D01*
X101457143Y-132101690D02*
X101495238Y-132139785D01*
X101495238Y-132139785D02*
X101533333Y-132215976D01*
X101533333Y-132215976D02*
X101533333Y-132292166D01*
X101533333Y-132292166D02*
X101495238Y-132406452D01*
X101495238Y-132406452D02*
X101038095Y-132863595D01*
X101038095Y-132863595D02*
X101533333Y-132863595D01*
X104830852Y-117424305D02*
X104564185Y-117043352D01*
X104373709Y-117424305D02*
X104373709Y-116624305D01*
X104373709Y-116624305D02*
X104678471Y-116624305D01*
X104678471Y-116624305D02*
X104754661Y-116662400D01*
X104754661Y-116662400D02*
X104792756Y-116700495D01*
X104792756Y-116700495D02*
X104830852Y-116776686D01*
X104830852Y-116776686D02*
X104830852Y-116890971D01*
X104830852Y-116890971D02*
X104792756Y-116967162D01*
X104792756Y-116967162D02*
X104754661Y-117005257D01*
X104754661Y-117005257D02*
X104678471Y-117043352D01*
X104678471Y-117043352D02*
X104373709Y-117043352D01*
X105135613Y-116700495D02*
X105173709Y-116662400D01*
X105173709Y-116662400D02*
X105249899Y-116624305D01*
X105249899Y-116624305D02*
X105440375Y-116624305D01*
X105440375Y-116624305D02*
X105516566Y-116662400D01*
X105516566Y-116662400D02*
X105554661Y-116700495D01*
X105554661Y-116700495D02*
X105592756Y-116776686D01*
X105592756Y-116776686D02*
X105592756Y-116852876D01*
X105592756Y-116852876D02*
X105554661Y-116967162D01*
X105554661Y-116967162D02*
X105097518Y-117424305D01*
X105097518Y-117424305D02*
X105592756Y-117424305D01*
X109866667Y-130787404D02*
X109828571Y-130825500D01*
X109828571Y-130825500D02*
X109714286Y-130863595D01*
X109714286Y-130863595D02*
X109638095Y-130863595D01*
X109638095Y-130863595D02*
X109523809Y-130825500D01*
X109523809Y-130825500D02*
X109447619Y-130749309D01*
X109447619Y-130749309D02*
X109409524Y-130673119D01*
X109409524Y-130673119D02*
X109371428Y-130520738D01*
X109371428Y-130520738D02*
X109371428Y-130406452D01*
X109371428Y-130406452D02*
X109409524Y-130254071D01*
X109409524Y-130254071D02*
X109447619Y-130177880D01*
X109447619Y-130177880D02*
X109523809Y-130101690D01*
X109523809Y-130101690D02*
X109638095Y-130063595D01*
X109638095Y-130063595D02*
X109714286Y-130063595D01*
X109714286Y-130063595D02*
X109828571Y-130101690D01*
X109828571Y-130101690D02*
X109866667Y-130139785D01*
X110133333Y-130063595D02*
X110628571Y-130063595D01*
X110628571Y-130063595D02*
X110361905Y-130368357D01*
X110361905Y-130368357D02*
X110476190Y-130368357D01*
X110476190Y-130368357D02*
X110552381Y-130406452D01*
X110552381Y-130406452D02*
X110590476Y-130444547D01*
X110590476Y-130444547D02*
X110628571Y-130520738D01*
X110628571Y-130520738D02*
X110628571Y-130711214D01*
X110628571Y-130711214D02*
X110590476Y-130787404D01*
X110590476Y-130787404D02*
X110552381Y-130825500D01*
X110552381Y-130825500D02*
X110476190Y-130863595D01*
X110476190Y-130863595D02*
X110247619Y-130863595D01*
X110247619Y-130863595D02*
X110171428Y-130825500D01*
X110171428Y-130825500D02*
X110133333Y-130787404D01*
X96119547Y-139266666D02*
X96119547Y-139533332D01*
X96538595Y-139533332D02*
X95738595Y-139533332D01*
X95738595Y-139533332D02*
X95738595Y-139152380D01*
X96119547Y-138580952D02*
X96157642Y-138466666D01*
X96157642Y-138466666D02*
X96195738Y-138428571D01*
X96195738Y-138428571D02*
X96271928Y-138390475D01*
X96271928Y-138390475D02*
X96386214Y-138390475D01*
X96386214Y-138390475D02*
X96462404Y-138428571D01*
X96462404Y-138428571D02*
X96500500Y-138466666D01*
X96500500Y-138466666D02*
X96538595Y-138542856D01*
X96538595Y-138542856D02*
X96538595Y-138847618D01*
X96538595Y-138847618D02*
X95738595Y-138847618D01*
X95738595Y-138847618D02*
X95738595Y-138580952D01*
X95738595Y-138580952D02*
X95776690Y-138504761D01*
X95776690Y-138504761D02*
X95814785Y-138466666D01*
X95814785Y-138466666D02*
X95890976Y-138428571D01*
X95890976Y-138428571D02*
X95967166Y-138428571D01*
X95967166Y-138428571D02*
X96043357Y-138466666D01*
X96043357Y-138466666D02*
X96081452Y-138504761D01*
X96081452Y-138504761D02*
X96119547Y-138580952D01*
X96119547Y-138580952D02*
X96119547Y-138847618D01*
X96538595Y-137628571D02*
X96538595Y-138085714D01*
X96538595Y-137857142D02*
X95738595Y-137857142D01*
X95738595Y-137857142D02*
X95852880Y-137933333D01*
X95852880Y-137933333D02*
X95929071Y-138009523D01*
X95929071Y-138009523D02*
X95967166Y-138085714D01*
X102787404Y-128133332D02*
X102825500Y-128171428D01*
X102825500Y-128171428D02*
X102863595Y-128285713D01*
X102863595Y-128285713D02*
X102863595Y-128361904D01*
X102863595Y-128361904D02*
X102825500Y-128476190D01*
X102825500Y-128476190D02*
X102749309Y-128552380D01*
X102749309Y-128552380D02*
X102673119Y-128590475D01*
X102673119Y-128590475D02*
X102520738Y-128628571D01*
X102520738Y-128628571D02*
X102406452Y-128628571D01*
X102406452Y-128628571D02*
X102254071Y-128590475D01*
X102254071Y-128590475D02*
X102177880Y-128552380D01*
X102177880Y-128552380D02*
X102101690Y-128476190D01*
X102101690Y-128476190D02*
X102063595Y-128361904D01*
X102063595Y-128361904D02*
X102063595Y-128285713D01*
X102063595Y-128285713D02*
X102101690Y-128171428D01*
X102101690Y-128171428D02*
X102139785Y-128133332D01*
X102063595Y-127409523D02*
X102063595Y-127790475D01*
X102063595Y-127790475D02*
X102444547Y-127828571D01*
X102444547Y-127828571D02*
X102406452Y-127790475D01*
X102406452Y-127790475D02*
X102368357Y-127714285D01*
X102368357Y-127714285D02*
X102368357Y-127523809D01*
X102368357Y-127523809D02*
X102406452Y-127447618D01*
X102406452Y-127447618D02*
X102444547Y-127409523D01*
X102444547Y-127409523D02*
X102520738Y-127371428D01*
X102520738Y-127371428D02*
X102711214Y-127371428D01*
X102711214Y-127371428D02*
X102787404Y-127409523D01*
X102787404Y-127409523D02*
X102825500Y-127447618D01*
X102825500Y-127447618D02*
X102863595Y-127523809D01*
X102863595Y-127523809D02*
X102863595Y-127714285D01*
X102863595Y-127714285D02*
X102825500Y-127790475D01*
X102825500Y-127790475D02*
X102787404Y-127828571D01*
X98942011Y-118785418D02*
X98561058Y-119052085D01*
X98942011Y-119242561D02*
X98142011Y-119242561D01*
X98142011Y-119242561D02*
X98142011Y-118937799D01*
X98142011Y-118937799D02*
X98180106Y-118861609D01*
X98180106Y-118861609D02*
X98218201Y-118823514D01*
X98218201Y-118823514D02*
X98294392Y-118785418D01*
X98294392Y-118785418D02*
X98408677Y-118785418D01*
X98408677Y-118785418D02*
X98484868Y-118823514D01*
X98484868Y-118823514D02*
X98522963Y-118861609D01*
X98522963Y-118861609D02*
X98561058Y-118937799D01*
X98561058Y-118937799D02*
X98561058Y-119242561D01*
X98942011Y-118023514D02*
X98942011Y-118480657D01*
X98942011Y-118252085D02*
X98142011Y-118252085D01*
X98142011Y-118252085D02*
X98256296Y-118328276D01*
X98256296Y-118328276D02*
X98332487Y-118404466D01*
X98332487Y-118404466D02*
X98370582Y-118480657D01*
X100368142Y-138322022D02*
X100101475Y-137941069D01*
X99910999Y-138322022D02*
X99910999Y-137522022D01*
X99910999Y-137522022D02*
X100215761Y-137522022D01*
X100215761Y-137522022D02*
X100291951Y-137560117D01*
X100291951Y-137560117D02*
X100330046Y-137598212D01*
X100330046Y-137598212D02*
X100368142Y-137674403D01*
X100368142Y-137674403D02*
X100368142Y-137788688D01*
X100368142Y-137788688D02*
X100330046Y-137864879D01*
X100330046Y-137864879D02*
X100291951Y-137902974D01*
X100291951Y-137902974D02*
X100215761Y-137941069D01*
X100215761Y-137941069D02*
X99910999Y-137941069D01*
X100634808Y-137522022D02*
X101168142Y-137522022D01*
X101168142Y-137522022D02*
X100825284Y-138322022D01*
D11*
X104789504Y-119012773D02*
X104789504Y-118012773D01*
X104789504Y-118012773D02*
X105027599Y-118012773D01*
X105027599Y-118012773D02*
X105170456Y-118060392D01*
X105170456Y-118060392D02*
X105265694Y-118155630D01*
X105265694Y-118155630D02*
X105313313Y-118250868D01*
X105313313Y-118250868D02*
X105360932Y-118441344D01*
X105360932Y-118441344D02*
X105360932Y-118584201D01*
X105360932Y-118584201D02*
X105313313Y-118774677D01*
X105313313Y-118774677D02*
X105265694Y-118869915D01*
X105265694Y-118869915D02*
X105170456Y-118965154D01*
X105170456Y-118965154D02*
X105027599Y-119012773D01*
X105027599Y-119012773D02*
X104789504Y-119012773D01*
X106313313Y-119012773D02*
X105741885Y-119012773D01*
X106027599Y-119012773D02*
X106027599Y-118012773D01*
X106027599Y-118012773D02*
X105932361Y-118155630D01*
X105932361Y-118155630D02*
X105837123Y-118250868D01*
X105837123Y-118250868D02*
X105741885Y-118298487D01*
D10*
X115366667Y-138863595D02*
X115100000Y-138482642D01*
X114909524Y-138863595D02*
X114909524Y-138063595D01*
X114909524Y-138063595D02*
X115214286Y-138063595D01*
X115214286Y-138063595D02*
X115290476Y-138101690D01*
X115290476Y-138101690D02*
X115328571Y-138139785D01*
X115328571Y-138139785D02*
X115366667Y-138215976D01*
X115366667Y-138215976D02*
X115366667Y-138330261D01*
X115366667Y-138330261D02*
X115328571Y-138406452D01*
X115328571Y-138406452D02*
X115290476Y-138444547D01*
X115290476Y-138444547D02*
X115214286Y-138482642D01*
X115214286Y-138482642D02*
X114909524Y-138482642D01*
X116090476Y-138063595D02*
X115709524Y-138063595D01*
X115709524Y-138063595D02*
X115671428Y-138444547D01*
X115671428Y-138444547D02*
X115709524Y-138406452D01*
X115709524Y-138406452D02*
X115785714Y-138368357D01*
X115785714Y-138368357D02*
X115976190Y-138368357D01*
X115976190Y-138368357D02*
X116052381Y-138406452D01*
X116052381Y-138406452D02*
X116090476Y-138444547D01*
X116090476Y-138444547D02*
X116128571Y-138520738D01*
X116128571Y-138520738D02*
X116128571Y-138711214D01*
X116128571Y-138711214D02*
X116090476Y-138787404D01*
X116090476Y-138787404D02*
X116052381Y-138825500D01*
X116052381Y-138825500D02*
X115976190Y-138863595D01*
X115976190Y-138863595D02*
X115785714Y-138863595D01*
X115785714Y-138863595D02*
X115709524Y-138825500D01*
X115709524Y-138825500D02*
X115671428Y-138787404D01*
X107462058Y-113639136D02*
X107500154Y-113677232D01*
X107500154Y-113677232D02*
X107538249Y-113791517D01*
X107538249Y-113791517D02*
X107538249Y-113867708D01*
X107538249Y-113867708D02*
X107500154Y-113981994D01*
X107500154Y-113981994D02*
X107423963Y-114058184D01*
X107423963Y-114058184D02*
X107347773Y-114096279D01*
X107347773Y-114096279D02*
X107195392Y-114134375D01*
X107195392Y-114134375D02*
X107081106Y-114134375D01*
X107081106Y-114134375D02*
X106928725Y-114096279D01*
X106928725Y-114096279D02*
X106852534Y-114058184D01*
X106852534Y-114058184D02*
X106776344Y-113981994D01*
X106776344Y-113981994D02*
X106738249Y-113867708D01*
X106738249Y-113867708D02*
X106738249Y-113791517D01*
X106738249Y-113791517D02*
X106776344Y-113677232D01*
X106776344Y-113677232D02*
X106814439Y-113639136D01*
X106814439Y-113334375D02*
X106776344Y-113296279D01*
X106776344Y-113296279D02*
X106738249Y-113220089D01*
X106738249Y-113220089D02*
X106738249Y-113029613D01*
X106738249Y-113029613D02*
X106776344Y-112953422D01*
X106776344Y-112953422D02*
X106814439Y-112915327D01*
X106814439Y-112915327D02*
X106890630Y-112877232D01*
X106890630Y-112877232D02*
X106966820Y-112877232D01*
X106966820Y-112877232D02*
X107081106Y-112915327D01*
X107081106Y-112915327D02*
X107538249Y-113372470D01*
X107538249Y-113372470D02*
X107538249Y-112877232D01*
X124866667Y-124933595D02*
X124600000Y-124552642D01*
X124409524Y-124933595D02*
X124409524Y-124133595D01*
X124409524Y-124133595D02*
X124714286Y-124133595D01*
X124714286Y-124133595D02*
X124790476Y-124171690D01*
X124790476Y-124171690D02*
X124828571Y-124209785D01*
X124828571Y-124209785D02*
X124866667Y-124285976D01*
X124866667Y-124285976D02*
X124866667Y-124400261D01*
X124866667Y-124400261D02*
X124828571Y-124476452D01*
X124828571Y-124476452D02*
X124790476Y-124514547D01*
X124790476Y-124514547D02*
X124714286Y-124552642D01*
X124714286Y-124552642D02*
X124409524Y-124552642D01*
X125552381Y-124400261D02*
X125552381Y-124933595D01*
X125361905Y-124095500D02*
X125171428Y-124666928D01*
X125171428Y-124666928D02*
X125666667Y-124666928D01*
X103233333Y-101063595D02*
X103233333Y-101635023D01*
X103233333Y-101635023D02*
X103195238Y-101749309D01*
X103195238Y-101749309D02*
X103119047Y-101825500D01*
X103119047Y-101825500D02*
X103004762Y-101863595D01*
X103004762Y-101863595D02*
X102928571Y-101863595D01*
X103538095Y-101063595D02*
X104033333Y-101063595D01*
X104033333Y-101063595D02*
X103766667Y-101368357D01*
X103766667Y-101368357D02*
X103880952Y-101368357D01*
X103880952Y-101368357D02*
X103957143Y-101406452D01*
X103957143Y-101406452D02*
X103995238Y-101444547D01*
X103995238Y-101444547D02*
X104033333Y-101520738D01*
X104033333Y-101520738D02*
X104033333Y-101711214D01*
X104033333Y-101711214D02*
X103995238Y-101787404D01*
X103995238Y-101787404D02*
X103957143Y-101825500D01*
X103957143Y-101825500D02*
X103880952Y-101863595D01*
X103880952Y-101863595D02*
X103652381Y-101863595D01*
X103652381Y-101863595D02*
X103576190Y-101825500D01*
X103576190Y-101825500D02*
X103538095Y-101787404D01*
X112066359Y-127882474D02*
X112104455Y-127920570D01*
X112104455Y-127920570D02*
X112142550Y-128034855D01*
X112142550Y-128034855D02*
X112142550Y-128111046D01*
X112142550Y-128111046D02*
X112104455Y-128225332D01*
X112104455Y-128225332D02*
X112028264Y-128301522D01*
X112028264Y-128301522D02*
X111952074Y-128339617D01*
X111952074Y-128339617D02*
X111799693Y-128377713D01*
X111799693Y-128377713D02*
X111685407Y-128377713D01*
X111685407Y-128377713D02*
X111533026Y-128339617D01*
X111533026Y-128339617D02*
X111456835Y-128301522D01*
X111456835Y-128301522D02*
X111380645Y-128225332D01*
X111380645Y-128225332D02*
X111342550Y-128111046D01*
X111342550Y-128111046D02*
X111342550Y-128034855D01*
X111342550Y-128034855D02*
X111380645Y-127920570D01*
X111380645Y-127920570D02*
X111418740Y-127882474D01*
X111342550Y-127196760D02*
X111342550Y-127349141D01*
X111342550Y-127349141D02*
X111380645Y-127425332D01*
X111380645Y-127425332D02*
X111418740Y-127463427D01*
X111418740Y-127463427D02*
X111533026Y-127539617D01*
X111533026Y-127539617D02*
X111685407Y-127577713D01*
X111685407Y-127577713D02*
X111990169Y-127577713D01*
X111990169Y-127577713D02*
X112066359Y-127539617D01*
X112066359Y-127539617D02*
X112104455Y-127501522D01*
X112104455Y-127501522D02*
X112142550Y-127425332D01*
X112142550Y-127425332D02*
X112142550Y-127272951D01*
X112142550Y-127272951D02*
X112104455Y-127196760D01*
X112104455Y-127196760D02*
X112066359Y-127158665D01*
X112066359Y-127158665D02*
X111990169Y-127120570D01*
X111990169Y-127120570D02*
X111799693Y-127120570D01*
X111799693Y-127120570D02*
X111723502Y-127158665D01*
X111723502Y-127158665D02*
X111685407Y-127196760D01*
X111685407Y-127196760D02*
X111647312Y-127272951D01*
X111647312Y-127272951D02*
X111647312Y-127425332D01*
X111647312Y-127425332D02*
X111685407Y-127501522D01*
X111685407Y-127501522D02*
X111723502Y-127539617D01*
X111723502Y-127539617D02*
X111799693Y-127577713D01*
X98866667Y-142787404D02*
X98828571Y-142825500D01*
X98828571Y-142825500D02*
X98714286Y-142863595D01*
X98714286Y-142863595D02*
X98638095Y-142863595D01*
X98638095Y-142863595D02*
X98523809Y-142825500D01*
X98523809Y-142825500D02*
X98447619Y-142749309D01*
X98447619Y-142749309D02*
X98409524Y-142673119D01*
X98409524Y-142673119D02*
X98371428Y-142520738D01*
X98371428Y-142520738D02*
X98371428Y-142406452D01*
X98371428Y-142406452D02*
X98409524Y-142254071D01*
X98409524Y-142254071D02*
X98447619Y-142177880D01*
X98447619Y-142177880D02*
X98523809Y-142101690D01*
X98523809Y-142101690D02*
X98638095Y-142063595D01*
X98638095Y-142063595D02*
X98714286Y-142063595D01*
X98714286Y-142063595D02*
X98828571Y-142101690D01*
X98828571Y-142101690D02*
X98866667Y-142139785D01*
X99133333Y-142063595D02*
X99666667Y-142063595D01*
X99666667Y-142063595D02*
X99323809Y-142863595D01*
X117194353Y-133540249D02*
X116813400Y-133806916D01*
X117194353Y-133997392D02*
X116394353Y-133997392D01*
X116394353Y-133997392D02*
X116394353Y-133692630D01*
X116394353Y-133692630D02*
X116432448Y-133616440D01*
X116432448Y-133616440D02*
X116470543Y-133578345D01*
X116470543Y-133578345D02*
X116546734Y-133540249D01*
X116546734Y-133540249D02*
X116661019Y-133540249D01*
X116661019Y-133540249D02*
X116737210Y-133578345D01*
X116737210Y-133578345D02*
X116775305Y-133616440D01*
X116775305Y-133616440D02*
X116813400Y-133692630D01*
X116813400Y-133692630D02*
X116813400Y-133997392D01*
X116394353Y-133273583D02*
X116394353Y-132778345D01*
X116394353Y-132778345D02*
X116699115Y-133045011D01*
X116699115Y-133045011D02*
X116699115Y-132930726D01*
X116699115Y-132930726D02*
X116737210Y-132854535D01*
X116737210Y-132854535D02*
X116775305Y-132816440D01*
X116775305Y-132816440D02*
X116851496Y-132778345D01*
X116851496Y-132778345D02*
X117041972Y-132778345D01*
X117041972Y-132778345D02*
X117118162Y-132816440D01*
X117118162Y-132816440D02*
X117156258Y-132854535D01*
X117156258Y-132854535D02*
X117194353Y-132930726D01*
X117194353Y-132930726D02*
X117194353Y-133159297D01*
X117194353Y-133159297D02*
X117156258Y-133235488D01*
X117156258Y-133235488D02*
X117118162Y-133273583D01*
X99547618Y-143601690D02*
X99471428Y-143563595D01*
X99471428Y-143563595D02*
X99357142Y-143563595D01*
X99357142Y-143563595D02*
X99242856Y-143601690D01*
X99242856Y-143601690D02*
X99166666Y-143677880D01*
X99166666Y-143677880D02*
X99128571Y-143754071D01*
X99128571Y-143754071D02*
X99090475Y-143906452D01*
X99090475Y-143906452D02*
X99090475Y-144020738D01*
X99090475Y-144020738D02*
X99128571Y-144173119D01*
X99128571Y-144173119D02*
X99166666Y-144249309D01*
X99166666Y-144249309D02*
X99242856Y-144325500D01*
X99242856Y-144325500D02*
X99357142Y-144363595D01*
X99357142Y-144363595D02*
X99433333Y-144363595D01*
X99433333Y-144363595D02*
X99547618Y-144325500D01*
X99547618Y-144325500D02*
X99585714Y-144287404D01*
X99585714Y-144287404D02*
X99585714Y-144020738D01*
X99585714Y-144020738D02*
X99433333Y-144020738D01*
X99928571Y-144363595D02*
X99928571Y-143563595D01*
X99928571Y-143563595D02*
X100233333Y-143563595D01*
X100233333Y-143563595D02*
X100309523Y-143601690D01*
X100309523Y-143601690D02*
X100347618Y-143639785D01*
X100347618Y-143639785D02*
X100385714Y-143715976D01*
X100385714Y-143715976D02*
X100385714Y-143830261D01*
X100385714Y-143830261D02*
X100347618Y-143906452D01*
X100347618Y-143906452D02*
X100309523Y-143944547D01*
X100309523Y-143944547D02*
X100233333Y-143982642D01*
X100233333Y-143982642D02*
X99928571Y-143982642D01*
X100690475Y-144325500D02*
X100804761Y-144363595D01*
X100804761Y-144363595D02*
X100995237Y-144363595D01*
X100995237Y-144363595D02*
X101071428Y-144325500D01*
X101071428Y-144325500D02*
X101109523Y-144287404D01*
X101109523Y-144287404D02*
X101147618Y-144211214D01*
X101147618Y-144211214D02*
X101147618Y-144135023D01*
X101147618Y-144135023D02*
X101109523Y-144058833D01*
X101109523Y-144058833D02*
X101071428Y-144020738D01*
X101071428Y-144020738D02*
X100995237Y-143982642D01*
X100995237Y-143982642D02*
X100842856Y-143944547D01*
X100842856Y-143944547D02*
X100766666Y-143906452D01*
X100766666Y-143906452D02*
X100728571Y-143868357D01*
X100728571Y-143868357D02*
X100690475Y-143792166D01*
X100690475Y-143792166D02*
X100690475Y-143715976D01*
X100690475Y-143715976D02*
X100728571Y-143639785D01*
X100728571Y-143639785D02*
X100766666Y-143601690D01*
X100766666Y-143601690D02*
X100842856Y-143563595D01*
X100842856Y-143563595D02*
X101033333Y-143563595D01*
X101033333Y-143563595D02*
X101147618Y-143601690D01*
X101909523Y-144363595D02*
X101452380Y-144363595D01*
X101680952Y-144363595D02*
X101680952Y-143563595D01*
X101680952Y-143563595D02*
X101604761Y-143677880D01*
X101604761Y-143677880D02*
X101528571Y-143754071D01*
X101528571Y-143754071D02*
X101452380Y-143792166D01*
X101504762Y-110579377D02*
X101238095Y-110198424D01*
X101047619Y-110579377D02*
X101047619Y-109779377D01*
X101047619Y-109779377D02*
X101352381Y-109779377D01*
X101352381Y-109779377D02*
X101428571Y-109817472D01*
X101428571Y-109817472D02*
X101466666Y-109855567D01*
X101466666Y-109855567D02*
X101504762Y-109931758D01*
X101504762Y-109931758D02*
X101504762Y-110046043D01*
X101504762Y-110046043D02*
X101466666Y-110122234D01*
X101466666Y-110122234D02*
X101428571Y-110160329D01*
X101428571Y-110160329D02*
X101352381Y-110198424D01*
X101352381Y-110198424D02*
X101047619Y-110198424D01*
X102152381Y-110541282D02*
X102076190Y-110579377D01*
X102076190Y-110579377D02*
X101923809Y-110579377D01*
X101923809Y-110579377D02*
X101847619Y-110541282D01*
X101847619Y-110541282D02*
X101809523Y-110465091D01*
X101809523Y-110465091D02*
X101809523Y-110160329D01*
X101809523Y-110160329D02*
X101847619Y-110084139D01*
X101847619Y-110084139D02*
X101923809Y-110046043D01*
X101923809Y-110046043D02*
X102076190Y-110046043D01*
X102076190Y-110046043D02*
X102152381Y-110084139D01*
X102152381Y-110084139D02*
X102190476Y-110160329D01*
X102190476Y-110160329D02*
X102190476Y-110236520D01*
X102190476Y-110236520D02*
X101809523Y-110312710D01*
X102876190Y-110541282D02*
X102799999Y-110579377D01*
X102799999Y-110579377D02*
X102647618Y-110579377D01*
X102647618Y-110579377D02*
X102571428Y-110541282D01*
X102571428Y-110541282D02*
X102533333Y-110503186D01*
X102533333Y-110503186D02*
X102495237Y-110426996D01*
X102495237Y-110426996D02*
X102495237Y-110198424D01*
X102495237Y-110198424D02*
X102533333Y-110122234D01*
X102533333Y-110122234D02*
X102571428Y-110084139D01*
X102571428Y-110084139D02*
X102647618Y-110046043D01*
X102647618Y-110046043D02*
X102799999Y-110046043D01*
X102799999Y-110046043D02*
X102876190Y-110084139D01*
X103219047Y-110579377D02*
X103219047Y-109779377D01*
X103561904Y-110579377D02*
X103561904Y-110160329D01*
X103561904Y-110160329D02*
X103523809Y-110084139D01*
X103523809Y-110084139D02*
X103447618Y-110046043D01*
X103447618Y-110046043D02*
X103333332Y-110046043D01*
X103333332Y-110046043D02*
X103257142Y-110084139D01*
X103257142Y-110084139D02*
X103219047Y-110122234D01*
X104285714Y-110579377D02*
X104285714Y-110160329D01*
X104285714Y-110160329D02*
X104247619Y-110084139D01*
X104247619Y-110084139D02*
X104171428Y-110046043D01*
X104171428Y-110046043D02*
X104019047Y-110046043D01*
X104019047Y-110046043D02*
X103942857Y-110084139D01*
X104285714Y-110541282D02*
X104209523Y-110579377D01*
X104209523Y-110579377D02*
X104019047Y-110579377D01*
X104019047Y-110579377D02*
X103942857Y-110541282D01*
X103942857Y-110541282D02*
X103904761Y-110465091D01*
X103904761Y-110465091D02*
X103904761Y-110388901D01*
X103904761Y-110388901D02*
X103942857Y-110312710D01*
X103942857Y-110312710D02*
X104019047Y-110274615D01*
X104019047Y-110274615D02*
X104209523Y-110274615D01*
X104209523Y-110274615D02*
X104285714Y-110236520D01*
X104666667Y-110579377D02*
X104666667Y-110046043D01*
X104666667Y-110198424D02*
X104704762Y-110122234D01*
X104704762Y-110122234D02*
X104742857Y-110084139D01*
X104742857Y-110084139D02*
X104819048Y-110046043D01*
X104819048Y-110046043D02*
X104895238Y-110046043D01*
X105504762Y-110046043D02*
X105504762Y-110693662D01*
X105504762Y-110693662D02*
X105466667Y-110769853D01*
X105466667Y-110769853D02*
X105428571Y-110807948D01*
X105428571Y-110807948D02*
X105352381Y-110846043D01*
X105352381Y-110846043D02*
X105238095Y-110846043D01*
X105238095Y-110846043D02*
X105161905Y-110807948D01*
X105504762Y-110541282D02*
X105428571Y-110579377D01*
X105428571Y-110579377D02*
X105276190Y-110579377D01*
X105276190Y-110579377D02*
X105200000Y-110541282D01*
X105200000Y-110541282D02*
X105161905Y-110503186D01*
X105161905Y-110503186D02*
X105123809Y-110426996D01*
X105123809Y-110426996D02*
X105123809Y-110198424D01*
X105123809Y-110198424D02*
X105161905Y-110122234D01*
X105161905Y-110122234D02*
X105200000Y-110084139D01*
X105200000Y-110084139D02*
X105276190Y-110046043D01*
X105276190Y-110046043D02*
X105428571Y-110046043D01*
X105428571Y-110046043D02*
X105504762Y-110084139D01*
X106190477Y-110541282D02*
X106114286Y-110579377D01*
X106114286Y-110579377D02*
X105961905Y-110579377D01*
X105961905Y-110579377D02*
X105885715Y-110541282D01*
X105885715Y-110541282D02*
X105847619Y-110465091D01*
X105847619Y-110465091D02*
X105847619Y-110160329D01*
X105847619Y-110160329D02*
X105885715Y-110084139D01*
X105885715Y-110084139D02*
X105961905Y-110046043D01*
X105961905Y-110046043D02*
X106114286Y-110046043D01*
X106114286Y-110046043D02*
X106190477Y-110084139D01*
X106190477Y-110084139D02*
X106228572Y-110160329D01*
X106228572Y-110160329D02*
X106228572Y-110236520D01*
X106228572Y-110236520D02*
X105847619Y-110312710D01*
X106990476Y-110579377D02*
X106533333Y-110579377D01*
X106761905Y-110579377D02*
X106761905Y-109779377D01*
X106761905Y-109779377D02*
X106685714Y-109893662D01*
X106685714Y-109893662D02*
X106609524Y-109969853D01*
X106609524Y-109969853D02*
X106533333Y-110007948D01*
X116640887Y-142310830D02*
X116374220Y-141929877D01*
X116183744Y-142310830D02*
X116183744Y-141510830D01*
X116183744Y-141510830D02*
X116488506Y-141510830D01*
X116488506Y-141510830D02*
X116564696Y-141548925D01*
X116564696Y-141548925D02*
X116602791Y-141587020D01*
X116602791Y-141587020D02*
X116640887Y-141663211D01*
X116640887Y-141663211D02*
X116640887Y-141777496D01*
X116640887Y-141777496D02*
X116602791Y-141853687D01*
X116602791Y-141853687D02*
X116564696Y-141891782D01*
X116564696Y-141891782D02*
X116488506Y-141929877D01*
X116488506Y-141929877D02*
X116183744Y-141929877D01*
X117326601Y-141510830D02*
X117174220Y-141510830D01*
X117174220Y-141510830D02*
X117098029Y-141548925D01*
X117098029Y-141548925D02*
X117059934Y-141587020D01*
X117059934Y-141587020D02*
X116983744Y-141701306D01*
X116983744Y-141701306D02*
X116945648Y-141853687D01*
X116945648Y-141853687D02*
X116945648Y-142158449D01*
X116945648Y-142158449D02*
X116983744Y-142234639D01*
X116983744Y-142234639D02*
X117021839Y-142272735D01*
X117021839Y-142272735D02*
X117098029Y-142310830D01*
X117098029Y-142310830D02*
X117250410Y-142310830D01*
X117250410Y-142310830D02*
X117326601Y-142272735D01*
X117326601Y-142272735D02*
X117364696Y-142234639D01*
X117364696Y-142234639D02*
X117402791Y-142158449D01*
X117402791Y-142158449D02*
X117402791Y-141967973D01*
X117402791Y-141967973D02*
X117364696Y-141891782D01*
X117364696Y-141891782D02*
X117326601Y-141853687D01*
X117326601Y-141853687D02*
X117250410Y-141815592D01*
X117250410Y-141815592D02*
X117098029Y-141815592D01*
X117098029Y-141815592D02*
X117021839Y-141853687D01*
X117021839Y-141853687D02*
X116983744Y-141891782D01*
X116983744Y-141891782D02*
X116945648Y-141967973D01*
%TO.C,C4*%
D12*
X95490000Y-112415580D02*
X95490000Y-112134420D01*
X96510000Y-112415580D02*
X96510000Y-112134420D01*
%TO.C,Regulator1*%
X104940000Y-125590000D02*
X104990000Y-125590000D01*
X104940000Y-127410000D02*
X104940000Y-125590000D01*
X104990000Y-127410000D02*
X104940000Y-127410000D01*
X106890000Y-127410000D02*
X106110000Y-127410000D01*
X108010000Y-125590000D02*
X108060000Y-125590000D01*
X108060000Y-125590000D02*
X108060000Y-127410000D01*
X108060000Y-127410000D02*
X108010000Y-127410000D01*
X108010000Y-125050000D02*
X108340000Y-124810000D01*
X108340000Y-125290000D01*
X108010000Y-125050000D01*
G36*
X108340000Y-125290000D02*
G01*
X108010000Y-125050000D01*
X108340000Y-124810000D01*
X108340000Y-125290000D01*
G37*
%TO.C,J1*%
X108390000Y-103065000D02*
X135610000Y-103065000D01*
X108390000Y-104175000D02*
X108390000Y-103065000D01*
X108740000Y-105675000D02*
X108390000Y-104175000D01*
X111940000Y-108585000D02*
X111710000Y-108585000D01*
X135610000Y-103065000D02*
X135610000Y-104175000D01*
X135610000Y-104175000D02*
X135260000Y-105675000D01*
X132190000Y-109405000D02*
X132520000Y-109165000D01*
X132520000Y-109645000D01*
X132190000Y-109405000D01*
G36*
X132520000Y-109645000D02*
G01*
X132190000Y-109405000D01*
X132520000Y-109165000D01*
X132520000Y-109645000D01*
G37*
%TO.C,J2*%
X97140000Y-135450000D02*
X97140000Y-132750000D01*
X99860000Y-132700000D02*
X99860000Y-133340000D01*
X99860000Y-134860000D02*
X100490000Y-134860000D01*
X99860000Y-135500000D02*
X99860000Y-134860000D01*
%TO.C,R2*%
X102937742Y-117890000D02*
X103412258Y-117890000D01*
X102937742Y-118935000D02*
X103412258Y-118935000D01*
%TO.C,C3*%
X112359420Y-130490000D02*
X112640580Y-130490000D01*
X112359420Y-131510000D02*
X112640580Y-131510000D01*
%TO.C,FB1*%
X97165000Y-138437221D02*
X97165000Y-138762779D01*
X98185000Y-138437221D02*
X98185000Y-138762779D01*
%TO.C,C5*%
X101490000Y-125359420D02*
X101490000Y-125640580D01*
X102510000Y-125359420D02*
X102510000Y-125640580D01*
%TO.C,R1*%
X100184474Y-119704787D02*
X100184474Y-120179303D01*
X101229474Y-119704787D02*
X101229474Y-120179303D01*
%TO.C,R7*%
X99937742Y-138677500D02*
X100412258Y-138677500D01*
X99937742Y-139722500D02*
X100412258Y-139722500D01*
%TO.C,D1*%
X101690000Y-119315000D02*
X101690000Y-120785000D01*
X101690000Y-120785000D02*
X103975000Y-120785000D01*
X103975000Y-119315000D02*
X101690000Y-119315000D01*
%TO.C,R5*%
X115762742Y-140177500D02*
X116237258Y-140177500D01*
X115762742Y-141222500D02*
X116237258Y-141222500D01*
%TO.C,C2*%
X104990000Y-113359420D02*
X104990000Y-113640580D01*
X106010000Y-113359420D02*
X106010000Y-113640580D01*
%TO.C,R4*%
X124762742Y-125477500D02*
X125237258Y-125477500D01*
X124762742Y-126522500D02*
X125237258Y-126522500D01*
%TO.C,J3*%
X95959897Y-101398669D02*
X95959897Y-109218669D01*
X95959897Y-107618669D02*
X96879897Y-107618669D01*
X95959897Y-109218669D02*
X96879897Y-109218669D01*
X96879897Y-107618669D02*
X97159897Y-107618669D01*
X96879897Y-109218669D02*
X96879897Y-107618669D01*
X98519897Y-105758669D02*
X98519897Y-101398669D01*
X99519897Y-101398669D02*
X99519897Y-105758669D01*
X99519897Y-105758669D02*
X98519897Y-105758669D01*
X100319897Y-103658669D02*
X100319897Y-101398669D01*
X100819897Y-103658669D02*
X100819897Y-101398669D01*
X100879897Y-107618669D02*
X100879897Y-108833669D01*
X100879897Y-107618669D02*
X101159897Y-107618669D01*
X101159897Y-107618669D02*
X101159897Y-109218669D01*
X101159897Y-109218669D02*
X102079897Y-109218669D01*
X102079897Y-101398669D02*
X95959897Y-101398669D01*
X102079897Y-107618669D02*
X101159897Y-107618669D01*
X102079897Y-109218669D02*
X102079897Y-101398669D01*
X96719897Y-103658669D02*
X97719897Y-103658669D01*
X97719897Y-105258669D01*
X96719897Y-105258669D01*
X96719897Y-103658669D01*
X100319897Y-103658669D02*
X101319897Y-103658669D01*
X101319897Y-105258669D01*
X100319897Y-105258669D01*
X100319897Y-103658669D01*
%TO.C,C6*%
X110990000Y-125640580D02*
X110990000Y-125359420D01*
X112010000Y-125640580D02*
X112010000Y-125359420D01*
%TO.C,C7*%
X100034420Y-140590000D02*
X100315580Y-140590000D01*
X100034420Y-141610000D02*
X100315580Y-141610000D01*
%TO.C,R3*%
X116477500Y-131237258D02*
X116477500Y-130762742D01*
X117522500Y-131237258D02*
X117522500Y-130762742D01*
%TO.C,GPS1*%
X103290000Y-134290000D02*
X103290000Y-134140000D01*
X103290000Y-144460000D02*
X103290000Y-144310000D01*
X113210000Y-134140000D02*
X103290000Y-134140000D01*
X113210000Y-134290000D02*
X113210000Y-134140000D01*
X113210000Y-144460000D02*
X103290000Y-144460000D01*
X113210000Y-144460000D02*
X113210000Y-144310000D01*
X113680000Y-144310000D02*
X113920000Y-144640000D01*
X113440000Y-144640000D01*
X113680000Y-144310000D01*
G36*
X113920000Y-144640000D02*
G01*
X113440000Y-144640000D01*
X113680000Y-144310000D01*
X113920000Y-144640000D01*
G37*
%TO.C,Recharge1*%
X98940000Y-112590000D02*
X98990000Y-112590000D01*
X98940000Y-114410000D02*
X98940000Y-112590000D01*
X98990000Y-114410000D02*
X98940000Y-114410000D01*
X100890000Y-114410000D02*
X100110000Y-114410000D01*
X102010000Y-112590000D02*
X102060000Y-112590000D01*
X102060000Y-112590000D02*
X102060000Y-114410000D01*
X102060000Y-114410000D02*
X102010000Y-114410000D01*
X102010000Y-112050000D02*
X102340000Y-111810000D01*
X102340000Y-112290000D01*
X102010000Y-112050000D01*
G36*
X102340000Y-112290000D02*
G01*
X102010000Y-112050000D01*
X102340000Y-111810000D01*
X102340000Y-112290000D01*
G37*
%TO.C,R6*%
X116536962Y-143424735D02*
X117011478Y-143424735D01*
X116536962Y-144469735D02*
X117011478Y-144469735D01*
%TD*%
M02*
