M48
; DRILL file KiCad 10.0.3 date 2026-07-31T06:59:38
; FORMAT={-:-/ absolute / metric / decimal}
; #@! TF.CreationDate,2026-07-31T06:59:38+02:00
; #@! TF.GenerationSoftware,Kicad,Pcbnew,10.0.3
; #@! TF.FileFunction,Plated,1,2,PTH
FMAT,2
METRIC
; #@! TA.AperFunction,Plated,PTH,ViaDrill
T1C0.300
; #@! TA.AperFunction,Plated,PTH,ComponentDrill
T2C0.750
%
G90
G05
T1
X96.0Y-114.0
X98.5Y-131.0
X99.0Y-137.0
X99.5Y-120.0
X100.4Y-111.132
X100.712Y-118.298
X101.5Y-116.0
X101.5Y-142.5
X101.746Y-134.503
X102.0Y-123.5
X102.0Y-137.5
X104.0Y-112.5
X106.5Y-123.5
X110.0Y-127.0
X111.712Y-132.486
X111.802Y-122.511
X112.5Y-111.0
X112.601Y-122.468
X113.3Y-111.0
X113.4Y-122.5
X114.1Y-111.0
X114.2Y-122.5
X114.708Y-143.707
X115.0Y-111.0
X115.0Y-122.5
X115.824Y-111.024
X116.0Y-122.5
X116.0Y-134.5
X116.663Y-111.034
X117.0Y-122.5
X118.0Y-131.5
X118.5Y-113.0
X119.0Y-122.0
X119.5Y-111.0
X120.066Y-111.566
X121.5Y-125.0
X126.5Y-111.0
X129.5Y-126.0
X132.836Y-132.5
X133.512Y-131.5
T2
X98.02Y-107.759
X100.02Y-107.759
M30
