%TF.GenerationSoftware,KiCad,Pcbnew,10.0.3*%
%TF.CreationDate,2026-07-31T06:59:30+02:00*%
%TF.ProjectId,essai_opt,65737361-695f-46f7-9074-2e6b69636164,rev?*%
%TF.SameCoordinates,Original*%
%TF.FileFunction,Copper,L2,Bot*%
%TF.FilePolarity,Positive*%
%FSLAX46Y46*%
G04 Gerber Fmt 4.6, Leading zero omitted, Abs format (unit mm)*
G04 Created by KiCad (PCBNEW 10.0.3) date 2026-07-31 06:59:30*
%MOMM*%
%LPD*%
G01*
G04 APERTURE LIST*
G04 Aperture macros list*
%AMRoundRect*
0 Rectangle with rounded corners*
0 $1 Rounding radius*
0 $2 $3 $4 $5 $6 $7 $8 $9 X,Y pos of 4 corners*
0 Add a 4 corners polygon primitive as box body*
4,1,4,$2,$3,$4,$5,$6,$7,$8,$9,$2,$3,0*
0 Add four circle primitives for the rounded corners*
1,1,$1+$1,$2,$3*
1,1,$1+$1,$4,$5*
1,1,$1+$1,$6,$7*
1,1,$1+$1,$8,$9*
0 Add four rect primitives between the rounded corners*
20,1,$1+$1,$2,$3,$4,$5,0*
20,1,$1+$1,$4,$5,$6,$7,0*
20,1,$1+$1,$6,$7,$8,$9,0*
20,1,$1+$1,$8,$9,$2,$3,0*%
%AMFreePoly0*
4,1,6,0.725000,-0.725000,-0.125000,-0.725000,-0.725000,-0.125000,-0.725000,0.725000,0.725000,0.725000,0.725000,-0.725000,0.725000,-0.725000,$1*%
G04 Aperture macros list end*
%TA.AperFunction,ComponentPad*%
%ADD10RoundRect,0.250000X0.350000X0.625000X-0.350000X0.625000X-0.350000X-0.625000X0.350000X-0.625000X0*%
%TD*%
%TA.AperFunction,ComponentPad*%
%ADD11O,1.200000X1.750000*%
%TD*%
%TA.AperFunction,SMDPad,CuDef*%
%ADD12RoundRect,0.100000X0.100000X-0.850000X0.100000X0.850000X-0.100000X0.850000X-0.100000X-0.850000X0*%
%TD*%
%TA.AperFunction,SMDPad,CuDef*%
%ADD13R,0.800000X0.400000*%
%TD*%
%TA.AperFunction,SMDPad,CuDef*%
%ADD14R,0.400000X0.800000*%
%TD*%
%TA.AperFunction,SMDPad,CuDef*%
%ADD15R,1.450000X1.450000*%
%TD*%
%TA.AperFunction,SMDPad,CuDef*%
%ADD16FreePoly0,0.000000*%
%TD*%
%TA.AperFunction,SMDPad,CuDef*%
%ADD17R,0.700000X0.700000*%
%TD*%
%TA.AperFunction,ViaPad*%
%ADD18C,0.600000*%
%TD*%
%TA.AperFunction,Conductor*%
%ADD19C,0.200000*%
%TD*%
%TA.AperFunction,Conductor*%
%ADD20C,0.500000*%
%TD*%
G04 APERTURE END LIST*
D10*
%TO.P,J3,1,Pin_1_1*%
%TO.N,Net-(J3-Pin_1)*%
X100019897Y-107758669D03*
D11*
%TO.P,J3,2,Pin_2_2*%
%TO.N,GND*%
X98019897Y-107758669D03*
%TD*%
D12*
%TO.P,MUX1,1,COM_1*%
%TO.N,Net-(MUX1-COM)*%
X117613330Y-120273286D03*
%TO.P,MUX1,2,I7_2*%
%TO.N,Net-(J1-Pin_10)*%
X116963330Y-120273286D03*
%TO.P,MUX1,3,I6_3*%
%TO.N,Net-(J1-Pin_9)*%
X116313330Y-120273286D03*
%TO.P,MUX1,4,I5_4*%
%TO.N,Net-(J1-Pin_8)*%
X115663330Y-120273286D03*
%TO.P,MUX1,5,I4_5*%
%TO.N,Net-(J1-Pin_7)*%
X115013330Y-120273286D03*
%TO.P,MUX1,6,I3_6*%
%TO.N,Net-(J1-Pin_5)*%
X114363330Y-120273286D03*
%TO.P,MUX1,7,I2_7*%
%TO.N,Net-(J1-Pin_4)*%
X113713330Y-120273286D03*
%TO.P,MUX1,8,I1_8*%
%TO.N,Net-(J1-Pin_3)*%
X113063330Y-120273286D03*
%TO.P,MUX1,9,I0_9*%
%TO.N,Net-(J1-Pin_2)*%
X112413330Y-120273286D03*
%TO.P,MUX1,10,S0_10*%
%TO.N,Net-(MUX1-S0)*%
X111763330Y-120273286D03*
%TO.P,MUX1,11,S1_11*%
%TO.N,Net-(MUX1-S1)*%
X111113330Y-120273286D03*
%TO.P,MUX1,12,GND_12*%
%TO.N,GND*%
X110463330Y-120273286D03*
%TO.P,MUX1,13,S3_13*%
%TO.N,Net-(MUX1-S3)*%
X110463330Y-113273286D03*
%TO.P,MUX1,14,S2_14*%
%TO.N,Net-(MUX1-S2)*%
X111113330Y-113273286D03*
%TO.P,MUX1,15,~{E}_15*%
%TO.N,GND*%
X111763330Y-113273286D03*
%TO.P,MUX1,16,I15_16*%
%TO.N,Net-(J1-Pin_20)*%
X112413330Y-113273286D03*
%TO.P,MUX1,17,I14_17*%
%TO.N,Net-(J1-Pin_19)*%
X113063330Y-113273286D03*
%TO.P,MUX1,18,I13_18*%
%TO.N,Net-(J1-Pin_18)*%
X113713330Y-113273286D03*
%TO.P,MUX1,19,I12_19*%
%TO.N,Net-(J1-Pin_17)*%
X114363330Y-113273286D03*
%TO.P,MUX1,20,I11_20*%
%TO.N,Net-(J1-Pin_16)*%
X115013330Y-113273286D03*
%TO.P,MUX1,21,I10_21*%
%TO.N,Net-(J1-Pin_15)*%
X115663330Y-113273286D03*
%TO.P,MUX1,22,I9_22*%
%TO.N,Net-(J1-Pin_13)*%
X116313330Y-113273286D03*
%TO.P,MUX1,23,I8_23*%
%TO.N,Net-(J1-Pin_12)*%
X116963330Y-113273286D03*
%TO.P,MUX1,24,VCC_24*%
%TO.N,Net-(GPS1-VCC)*%
X117613330Y-113273286D03*
%TD*%
D13*
%TO.P,U2,1,GND_1*%
%TO.N,GND*%
X119600000Y-137100000D03*
%TO.P,U2,2,GND_2*%
X119600000Y-136300000D03*
%TO.P,U2,3,3V3_3*%
%TO.N,Net-(GPS1-VCC)*%
X119600000Y-135500000D03*
%TO.P,U2,4,NC_4*%
%TO.N,unconnected-(U2-NC-Pad4)*%
X119600000Y-134700000D03*
%TO.P,U2,5,GPIO2/ADC1_CH2_5*%
%TO.N,Net-(MUX1-S2)*%
X119600000Y-133900000D03*
%TO.P,U2,6,GPIO3/ADC1_CH3_6*%
%TO.N,Net-(MUX1-S3)*%
X119600000Y-133100000D03*
%TO.P,U2,7,NC_7*%
%TO.N,unconnected-(U2-NC-Pad7)*%
X119600000Y-132300000D03*
%TO.P,U2,8,EN/CHIP_PU_8*%
%TO.N,Net-(U2-EN{slash}CHIP_PU)*%
X119600000Y-131500000D03*
%TO.P,U2,9,MTMS/GPIO4/ADC1_CH4_9*%
%TO.N,Net-(MUX1-S1)*%
X119600000Y-130700000D03*
%TO.P,U2,10,MTDI/GPIO5/ADC1_CH5_10*%
%TO.N,Net-(MUX1-S0)*%
X119600000Y-129900000D03*
%TO.P,U2,11,GND_11*%
%TO.N,GND*%
X119600000Y-129100000D03*
D14*
%TO.P,U2,12,GPIO0/ADC1_CH0/XTAL_32K_P_12*%
%TO.N,Net-(MUX1-COM)*%
X120700000Y-128200000D03*
%TO.P,U2,13,GPIO1/ADC1_CH1/XTAL_32K_N_13*%
%TO.N,unconnected-(U2-GPIO1{slash}ADC1_CH1{slash}XTAL_32K_N-Pad13)*%
X121500000Y-128200000D03*
%TO.P,U2,14,GND_14*%
%TO.N,GND*%
X122300000Y-128200000D03*
%TO.P,U2,15,MTCK/GPIO6/ADC1_CH6_15*%
%TO.N,unconnected-(U2-MTCK{slash}GPIO6{slash}ADC1_CH6-Pad15)*%
X123100000Y-128200000D03*
%TO.P,U2,16,MTDO/GPIO7_16*%
%TO.N,unconnected-(U2-MTDO{slash}GPIO7-Pad16)*%
X123900000Y-128200000D03*
%TO.P,U2,17,GPIO12/USB_D-_17*%
%TO.N,unconnected-(U2-GPIO12{slash}USB_D--Pad17)*%
X124700000Y-128200000D03*
%TO.P,U2,18,GPIO13/USB_D+_18*%
%TO.N,unconnected-(U2-GPIO13{slash}USB_D+-Pad18)*%
X125500000Y-128200000D03*
%TO.P,U2,19,GPIO14_19*%
%TO.N,unconnected-(U2-GPIO14-Pad19)*%
X126300000Y-128200000D03*
%TO.P,U2,20,GPIO15_20*%
%TO.N,unconnected-(U2-GPIO15-Pad20)*%
X127100000Y-128200000D03*
%TO.P,U2,21,NC_21*%
%TO.N,unconnected-(U2-NC-Pad21)*%
X127900000Y-128200000D03*
%TO.P,U2,22,GPIO8_22*%
%TO.N,unconnected-(U2-GPIO8-Pad22)*%
X128700000Y-128200000D03*
%TO.P,U2,23,GPIO9_23*%
%TO.N,Net-(U2-GPIO9)*%
X129500000Y-128200000D03*
%TO.P,U2,24,GPIO18_24*%
%TO.N,unconnected-(U2-GPIO18-Pad24)*%
X130300000Y-128200000D03*
D13*
%TO.P,U2,25,GPIO19_25*%
%TO.N,unconnected-(U2-GPIO19-Pad25)*%
X131400000Y-129100000D03*
%TO.P,U2,26,GPIO20_26*%
%TO.N,unconnected-(U2-GPIO20-Pad26)*%
X131400000Y-129900000D03*
%TO.P,U2,27,GPIO21_27*%
%TO.N,unconnected-(U2-GPIO21-Pad27)*%
X131400000Y-130700000D03*
%TO.P,U2,28,GPIO22_28*%
%TO.N,unconnected-(U2-GPIO22-Pad28)*%
X131400000Y-131500000D03*
%TO.P,U2,29,GPIO23_29*%
%TO.N,unconnected-(U2-GPIO23-Pad29)*%
X131400000Y-132300000D03*
%TO.P,U2,30,U0RXD/GPIO17_30*%
%TO.N,TX GPS*%
X131400000Y-133100000D03*
%TO.P,U2,31,U0TXD/GPIO16_31*%
%TO.N,RX GPS*%
X131400000Y-133900000D03*
%TO.P,U2,32,NC_32*%
%TO.N,unconnected-(U2-NC-Pad32)*%
X131400000Y-134700000D03*
%TO.P,U2,33,NC_33*%
%TO.N,unconnected-(U2-NC-Pad33)*%
X131400000Y-135500000D03*
%TO.P,U2,34,NC_34*%
%TO.N,unconnected-(U2-NC-Pad34)*%
X131400000Y-136300000D03*
%TO.P,U2,35,NC_35*%
%TO.N,unconnected-(U2-NC-Pad35)*%
X131400000Y-137100000D03*
D14*
%TO.P,U2,36,GND_36*%
%TO.N,GND*%
X130300000Y-138000000D03*
%TO.P,U2,37,GND_37*%
X129500000Y-138000000D03*
%TO.P,U2,38,GND_38*%
X128700000Y-138000000D03*
%TO.P,U2,39,GND_39*%
X127900000Y-138000000D03*
%TO.P,U2,40,GND_40*%
X127100000Y-138000000D03*
%TO.P,U2,41,GND_41*%
X126300000Y-138000000D03*
%TO.P,U2,42,GND_42*%
X125500000Y-138000000D03*
%TO.P,U2,43,GND_43*%
X124700000Y-138000000D03*
%TO.P,U2,44,GND_44*%
X123900000Y-138000000D03*
%TO.P,U2,45,GND_45*%
X123100000Y-138000000D03*
%TO.P,U2,46,GND_46*%
X122300000Y-138000000D03*
%TO.P,U2,47,GND_47*%
X121500000Y-138000000D03*
%TO.P,U2,48,GND_48*%
X120700000Y-138000000D03*
D15*
%TO.P,U2,49,GND_49*%
X123525000Y-131125000D03*
X123525000Y-133100000D03*
D16*
X123525000Y-135075000D03*
D15*
X125500000Y-131125000D03*
X125500000Y-133100000D03*
X125500000Y-135075000D03*
X127475000Y-131125000D03*
X127475000Y-133100000D03*
X127475000Y-135075000D03*
D17*
%TO.P,U2,50,GND_50*%
X131450000Y-138050000D03*
%TO.P,U2,51,GND_51*%
X131450000Y-128150000D03*
%TO.P,U2,52,GND_52*%
X119550000Y-128150000D03*
%TO.P,U2,53,GND_53*%
X119550000Y-138050000D03*
%TD*%
D18*
%TO.N,GND*%
X104000000Y-112500000D03*
X111712288Y-132485847D03*
X102000000Y-137500000D03*
X106500000Y-123500000D03*
X110000000Y-127000000D03*
X114707944Y-143706641D03*
X101745773Y-134502771D03*
X101500000Y-142500000D03*
X99000000Y-137000000D03*
X98500000Y-131000000D03*
X102000000Y-123500000D03*
X100712337Y-118298367D03*
X100400000Y-111131801D03*
X96000000Y-114000000D03*
%TO.N,Net-(GPS1-VCC)*%
X121500000Y-125000000D03*
X116000000Y-134500000D03*
X126500000Y-111000000D03*
X118500000Y-113000000D03*
%TO.N,Net-(J1-Pin_2)*%
X111801746Y-122510514D03*
%TO.N,Net-(J1-Pin_3)*%
X112600626Y-122468147D03*
%TO.N,Net-(J1-Pin_4)*%
X113399994Y-122500000D03*
%TO.N,Net-(J1-Pin_5)*%
X114199997Y-122500000D03*
%TO.N,Net-(J1-Pin_7)*%
X115000000Y-122500000D03*
%TO.N,Net-(J1-Pin_8)*%
X116000000Y-122500000D03*
%TO.N,Net-(J1-Pin_9)*%
X117000000Y-122500000D03*
%TO.N,Net-(J1-Pin_10)*%
X119000000Y-122000000D03*
%TO.N,Net-(J1-Pin_12)*%
X120065687Y-111565687D03*
%TO.N,Net-(J1-Pin_13)*%
X119500000Y-111000000D03*
%TO.N,Net-(J1-Pin_15)*%
X116662628Y-111034431D03*
%TO.N,Net-(J1-Pin_16)*%
X115824266Y-111024263D03*
%TO.N,Net-(J1-Pin_17)*%
X115000000Y-111000000D03*
%TO.N,Net-(J1-Pin_18)*%
X114100006Y-111000000D03*
%TO.N,Net-(J1-Pin_19)*%
X113300003Y-111000000D03*
%TO.N,Net-(J1-Pin_20)*%
X112500000Y-111000000D03*
%TO.N,Net-(Recharge1-PROG)*%
X101500000Y-116000000D03*
X99500000Y-120000000D03*
%TO.N,RX GPS*%
X133512221Y-131500000D03*
%TO.N,Net-(U2-GPIO9)*%
X129500000Y-126000000D03*
%TO.N,Net-(U2-EN{slash}CHIP_PU)*%
X118000000Y-131500000D03*
%TO.N,TX GPS*%
X132835701Y-132500000D03*
%TD*%
%TO.N,Net-(MUX1-COM)*%
D19*
X120700000Y-125700000D02*
X120700000Y-128200000D01*
X119600000Y-124600000D02*
X120700000Y-125700000D01*
X119600000Y-121751471D02*
X119600000Y-124600000D01*
X118121815Y-120273286D02*
X119600000Y-121751471D01*
X117613330Y-120273286D02*
X118121815Y-120273286D01*
%TO.N,Net-(GPS1-VCC)*%
D20*
X120500000Y-124000000D02*
X121500000Y-125000000D01*
X116000000Y-134500000D02*
X117000000Y-135500000D01*
X117886616Y-113000000D02*
X117613330Y-113273286D01*
X117000000Y-135500000D02*
X119600000Y-135500000D01*
X118500000Y-113000000D02*
X117886616Y-113000000D01*
X120500000Y-113000000D02*
X118500000Y-113000000D01*
X126500000Y-111000000D02*
X124500000Y-113000000D01*
X120500000Y-113000000D02*
X120500000Y-124000000D01*
X124500000Y-113000000D02*
X120500000Y-113000000D01*
%TO.N,Net-(J1-Pin_2)*%
D19*
X111801746Y-121890870D02*
X112413330Y-121279286D01*
X112413330Y-121279286D02*
X112413330Y-120273286D01*
X111801746Y-122510514D02*
X111801746Y-121890870D01*
%TO.N,Net-(J1-Pin_3)*%
X112600626Y-121685989D02*
X113063330Y-121223285D01*
X112600626Y-122468147D02*
X112600626Y-121685989D01*
X113063330Y-121223285D02*
X113063330Y-120273286D01*
%TO.N,Net-(J1-Pin_4)*%
X113399994Y-122500000D02*
X113525000Y-122374994D01*
X113399994Y-122451474D02*
X113713330Y-122138138D01*
X113713330Y-122138138D02*
X113713330Y-120273286D01*
X113399994Y-122500000D02*
X113399994Y-122451474D01*
%TO.N,Net-(J1-Pin_5)*%
X114363330Y-122336667D02*
X114363330Y-120273286D01*
X114199997Y-122500000D02*
X114363330Y-122336667D01*
%TO.N,Net-(J1-Pin_7)*%
X115000000Y-122500000D02*
X115013330Y-122486670D01*
X115000000Y-122500000D02*
X114975000Y-122475000D01*
X115013330Y-122486670D02*
X115013330Y-120273286D01*
%TO.N,Net-(J1-Pin_8)*%
X115663330Y-122163330D02*
X115663330Y-120273286D01*
X116000000Y-122500000D02*
X115663330Y-122163330D01*
%TO.N,Net-(J1-Pin_9)*%
X116313330Y-121813330D02*
X116313330Y-120273286D01*
X117000000Y-122500000D02*
X116313330Y-121813330D01*
%TO.N,Net-(J1-Pin_10)*%
X117475001Y-122000000D02*
X116963330Y-121488329D01*
X116963330Y-121488329D02*
X116963330Y-120273286D01*
X119000000Y-122000000D02*
X117475001Y-122000000D01*
%TO.N,Net-(J1-Pin_12)*%
X120065687Y-111565687D02*
X119631374Y-112000000D01*
X119631374Y-112000000D02*
X117286617Y-112000000D01*
X117286617Y-112000000D02*
X116963330Y-112323287D01*
X116963330Y-112323287D02*
X116963330Y-113273286D01*
%TO.N,Net-(J1-Pin_13)*%
X117636617Y-111000000D02*
X116313330Y-112323287D01*
X119500000Y-111000000D02*
X117636617Y-111000000D01*
X116313330Y-112323287D02*
X116313330Y-113273286D01*
%TO.N,Net-(J1-Pin_15)*%
X116662628Y-111034431D02*
X115663330Y-112033729D01*
X115663330Y-112033729D02*
X115663330Y-113273286D01*
%TO.N,Net-(J1-Pin_16)*%
X115824266Y-111024263D02*
X115013330Y-111835199D01*
X115013330Y-111835199D02*
X115013330Y-113273286D01*
%TO.N,Net-(J1-Pin_17)*%
X114363330Y-111636670D02*
X114363330Y-113273286D01*
X115000000Y-111000000D02*
X114363330Y-111636670D01*
%TO.N,Net-(J1-Pin_18)*%
X113863330Y-111236676D02*
X113863330Y-113123286D01*
X114100006Y-111000000D02*
X113863330Y-111236676D01*
X113863330Y-113123286D02*
X113713330Y-113273286D01*
%TO.N,Net-(J1-Pin_19)*%
X113300003Y-111000000D02*
X113063330Y-111236673D01*
X113063330Y-111236673D02*
X113063330Y-113273286D01*
%TO.N,Net-(J1-Pin_20)*%
X112500000Y-111000000D02*
X112413330Y-111086670D01*
X112413330Y-111086670D02*
X112413330Y-113273286D01*
%TO.N,Net-(Recharge1-PROG)*%
X99500000Y-120000000D02*
X99500000Y-118000000D01*
X99500000Y-118000000D02*
X101500000Y-116000000D01*
%TO.N,RX GPS*%
X133512221Y-132987779D02*
X132600000Y-133900000D01*
X132600000Y-133900000D02*
X131400000Y-133900000D01*
X133512221Y-131500000D02*
X133512221Y-132987779D01*
%TO.N,Net-(U2-GPIO9)*%
X129500000Y-126000000D02*
X129500000Y-128200000D01*
%TO.N,Net-(U2-EN{slash}CHIP_PU)*%
X118000000Y-131500000D02*
X119600000Y-131500000D01*
%TO.N,TX GPS*%
X132835701Y-132500000D02*
X132835701Y-132664299D01*
X132400000Y-133100000D02*
X131400000Y-133100000D01*
X132835701Y-132664299D02*
X132400000Y-133100000D01*
%TO.N,Net-(MUX1-S0)*%
X111763330Y-121223285D02*
X111763330Y-120273286D01*
X118342703Y-129900000D02*
X111000000Y-122557297D01*
X111000000Y-121986615D02*
X111763330Y-121223285D01*
X111000000Y-122557297D02*
X111000000Y-121986615D01*
X119600000Y-129900000D02*
X118342703Y-129900000D01*
%TO.N,Net-(MUX1-S1)*%
X110500000Y-121755072D02*
X111113330Y-121141742D01*
X118577018Y-130700000D02*
X110500000Y-122622982D01*
X119600000Y-130700000D02*
X118577018Y-130700000D01*
X111113330Y-121141742D02*
X111113330Y-120273286D01*
X110500000Y-122622982D02*
X110500000Y-121755072D01*
%TO.N,Net-(MUX1-S3)*%
X109000000Y-113500000D02*
X110236616Y-113500000D01*
X119600000Y-133100000D02*
X118751471Y-133100000D01*
X109000000Y-123348529D02*
X109000000Y-113500000D01*
X118751471Y-133100000D02*
X109000000Y-123348529D01*
X110236616Y-113500000D02*
X110463330Y-113273286D01*
%TO.N,Net-(MUX1-S2)*%
X108000000Y-111500000D02*
X110290043Y-111500000D01*
X118400000Y-133900000D02*
X108000000Y-123500000D01*
X110290043Y-111500000D02*
X111113330Y-112323287D01*
X111113330Y-112323287D02*
X111113330Y-113273286D01*
X108000000Y-123500000D02*
X108000000Y-111500000D01*
X119600000Y-133900000D02*
X118400000Y-133900000D01*
%TD*%
%TA.AperFunction,Conductor*%
%TO.N,GND*%
G36*
X135942539Y-101020185D02*
G01*
X135988294Y-101072989D01*
X135999500Y-101124500D01*
X135999500Y-144375500D01*
X135979815Y-144442539D01*
X135927011Y-144488294D01*
X135875500Y-144499500D01*
X132624000Y-144499500D01*
X132556961Y-144479815D01*
X132511206Y-144427011D01*
X132500000Y-144375500D01*
X132500000Y-138500000D01*
X132424000Y-138500000D01*
X132356961Y-138480315D01*
X132311206Y-138427511D01*
X132300000Y-138376000D01*
X132300000Y-138300000D01*
X130594000Y-138300000D01*
X130526961Y-138280315D01*
X130481206Y-138227511D01*
X130476672Y-138206672D01*
X130470000Y-138200000D01*
X120530000Y-138200000D01*
X120520023Y-138209976D01*
X120510315Y-138243039D01*
X120457511Y-138288794D01*
X120406000Y-138300000D01*
X118700000Y-138300000D01*
X118700000Y-138376000D01*
X118680315Y-138443039D01*
X118627511Y-138488794D01*
X118576000Y-138500000D01*
X118500000Y-138500000D01*
X118500000Y-144375500D01*
X118480315Y-144442539D01*
X118427511Y-144488294D01*
X118376000Y-144499500D01*
X95624500Y-144499500D01*
X95557461Y-144479815D01*
X95511706Y-144427011D01*
X95500500Y-144375500D01*
X95500500Y-137347844D01*
X118700000Y-137347844D01*
X118706401Y-137407372D01*
X118706403Y-137407380D01*
X118724786Y-137456667D01*
X118729770Y-137526359D01*
X118724786Y-137543333D01*
X118706403Y-137592619D01*
X118706401Y-137592627D01*
X118700000Y-137652155D01*
X118700000Y-137800000D01*
X119300000Y-137800000D01*
X119800000Y-137800000D01*
X120500000Y-137800000D01*
X120900000Y-137800000D01*
X121300000Y-137800000D01*
X121700000Y-137800000D01*
X122100000Y-137800000D01*
X122500000Y-137800000D01*
X122900000Y-137800000D01*
X123300000Y-137800000D01*
X123700000Y-137800000D01*
X124100000Y-137800000D01*
X124500000Y-137800000D01*
X124900000Y-137800000D01*
X125300000Y-137800000D01*
X125700000Y-137800000D01*
X126100000Y-137800000D01*
X126500000Y-137800000D01*
X126900000Y-137800000D01*
X127300000Y-137800000D01*
X127700000Y-137800000D01*
X128100000Y-137800000D01*
X128500000Y-137800000D01*
X128900000Y-137800000D01*
X129300000Y-137800000D01*
X129700000Y-137800000D01*
X130100000Y-137800000D01*
X130100000Y-137100000D01*
X130052155Y-137100000D01*
X129992627Y-137106401D01*
X129992619Y-137106403D01*
X129943333Y-137124786D01*
X129873641Y-137129770D01*
X129856667Y-137124786D01*
X129807380Y-137106403D01*
X129807372Y-137106401D01*
X129747844Y-137100000D01*
X129700000Y-137100000D01*
X129700000Y-137800000D01*
X129300000Y-137800000D01*
X129300000Y-137100000D01*
X129252155Y-137100000D01*
X129192627Y-137106401D01*
X129192619Y-137106403D01*
X129143333Y-137124786D01*
X129073641Y-137129770D01*
X129056667Y-137124786D01*
X129007380Y-137106403D01*
X129007372Y-137106401D01*
X128947844Y-137100000D01*
X128900000Y-137100000D01*
X128900000Y-137800000D01*
X128500000Y-137800000D01*
X128500000Y-137100000D01*
X128452155Y-137100000D01*
X128392627Y-137106401D01*
X128392619Y-137106403D01*
X128343333Y-137124786D01*
X128273641Y-137129770D01*
X128256667Y-137124786D01*
X128207380Y-137106403D01*
X128207372Y-137106401D01*
X128147844Y-137100000D01*
X128100000Y-137100000D01*
X128100000Y-137800000D01*
X127700000Y-137800000D01*
X127700000Y-137100000D01*
X127652155Y-137100000D01*
X127592627Y-137106401D01*
X127592619Y-137106403D01*
X127543333Y-137124786D01*
X127473641Y-137129770D01*
X127456667Y-137124786D01*
X127407380Y-137106403D01*
X127407372Y-137106401D01*
X127347844Y-137100000D01*
X127300000Y-137100000D01*
X127300000Y-137800000D01*
X126900000Y-137800000D01*
X126900000Y-137100000D01*
X126852155Y-137100000D01*
X126792627Y-137106401D01*
X126792619Y-137106403D01*
X126743333Y-137124786D01*
X126673641Y-137129770D01*
X126656667Y-137124786D01*
X126607380Y-137106403D01*
X126607372Y-137106401D01*
X126547844Y-137100000D01*
X126500000Y-137100000D01*
X126500000Y-137800000D01*
X126100000Y-137800000D01*
X126100000Y-137100000D01*
X126052155Y-137100000D01*
X125992627Y-137106401D01*
X125992619Y-137106403D01*
X125943333Y-137124786D01*
X125873641Y-137129770D01*
X125856667Y-137124786D01*
X125807380Y-137106403D01*
X125807372Y-137106401D01*
X125747844Y-137100000D01*
X125700000Y-137100000D01*
X125700000Y-137800000D01*
X125300000Y-137800000D01*
X125300000Y-137100000D01*
X125252155Y-137100000D01*
X125192627Y-137106401D01*
X125192619Y-137106403D01*
X125143333Y-137124786D01*
X125073641Y-137129770D01*
X125056667Y-137124786D01*
X125007380Y-137106403D01*
X125007372Y-137106401D01*
X124947844Y-137100000D01*
X124900000Y-137100000D01*
X124900000Y-137800000D01*
X124500000Y-137800000D01*
X124500000Y-137100000D01*
X124452155Y-137100000D01*
X124392627Y-137106401D01*
X124392619Y-137106403D01*
X124343333Y-137124786D01*
X124273641Y-137129770D01*
X124256667Y-137124786D01*
X124207380Y-137106403D01*
X124207372Y-137106401D01*
X124147844Y-137100000D01*
X124100000Y-137100000D01*
X124100000Y-137800000D01*
X123700000Y-137800000D01*
X123700000Y-137100000D01*
X123652155Y-137100000D01*
X123592627Y-137106401D01*
X123592619Y-137106403D01*
X123543333Y-137124786D01*
X123473641Y-137129770D01*
X123456667Y-137124786D01*
X123407380Y-137106403D01*
X123407372Y-137106401D01*
X123347844Y-137100000D01*
X123300000Y-137100000D01*
X123300000Y-137800000D01*
X122900000Y-137800000D01*
X122900000Y-137100000D01*
X122852155Y-137100000D01*
X122792627Y-137106401D01*
X122792619Y-137106403D01*
X122743333Y-137124786D01*
X122673641Y-137129770D01*
X122656667Y-137124786D01*
X122607380Y-137106403D01*
X122607372Y-137106401D01*
X122547844Y-137100000D01*
X122500000Y-137100000D01*
X122500000Y-137800000D01*
X122100000Y-137800000D01*
X122100000Y-137100000D01*
X122052155Y-137100000D01*
X121992627Y-137106401D01*
X121992619Y-137106403D01*
X121943333Y-137124786D01*
X121873641Y-137129770D01*
X121856667Y-137124786D01*
X121807380Y-137106403D01*
X121807372Y-137106401D01*
X121747844Y-137100000D01*
X121700000Y-137100000D01*
X121700000Y-137800000D01*
X121300000Y-137800000D01*
X121300000Y-137100000D01*
X121252155Y-137100000D01*
X121192627Y-137106401D01*
X121192619Y-137106403D01*
X121143333Y-137124786D01*
X121073641Y-137129770D01*
X121056667Y-137124786D01*
X121007380Y-137106403D01*
X121007372Y-137106401D01*
X120947844Y-137100000D01*
X120900000Y-137100000D01*
X120900000Y-137800000D01*
X120500000Y-137800000D01*
X120500000Y-137300000D01*
X119800000Y-137300000D01*
X119800000Y-137800000D01*
X119300000Y-137800000D01*
X119300000Y-137300000D01*
X118700000Y-137300000D01*
X118700000Y-137347844D01*
X95500500Y-137347844D01*
X95500500Y-136547844D01*
X118700000Y-136547844D01*
X118706401Y-136607372D01*
X118706403Y-136607380D01*
X118724786Y-136656667D01*
X118729770Y-136726359D01*
X118724786Y-136743333D01*
X118706403Y-136792619D01*
X118706401Y-136792627D01*
X118700000Y-136852155D01*
X118700000Y-136900000D01*
X119400000Y-136900000D01*
X119800000Y-136900000D01*
X120500000Y-136900000D01*
X120500000Y-136852172D01*
X120499999Y-136852155D01*
X120493597Y-136792622D01*
X120493597Y-136792621D01*
X120475214Y-136743335D01*
X120470228Y-136673644D01*
X120475214Y-136656665D01*
X120493597Y-136607378D01*
X120493597Y-136607377D01*
X120499999Y-136547844D01*
X120500000Y-136547827D01*
X120500000Y-136500000D01*
X119800000Y-136500000D01*
X119800000Y-136900000D01*
X119400000Y-136900000D01*
X119400000Y-136500000D01*
X118700000Y-136500000D01*
X118700000Y-136547844D01*
X95500500Y-136547844D01*
X95500500Y-119920943D01*
X98899500Y-119920943D01*
X98899500Y-120079056D01*
X98940423Y-120231783D01*
X98940426Y-120231790D01*
X99019475Y-120368709D01*
X99019479Y-120368714D01*
X99019480Y-120368716D01*
X99131284Y-120480520D01*
X99131286Y-120480521D01*
X99131290Y-120480524D01*
X99268209Y-120559573D01*
X99268216Y-120559577D01*
X99420943Y-120600500D01*
X99420945Y-120600500D01*
X99579055Y-120600500D01*
X99579057Y-120600500D01*
X99731784Y-120559577D01*
X99868716Y-120480520D01*
X99980520Y-120368716D01*
X100059577Y-120231784D01*
X100100500Y-120079057D01*
X100100500Y-119920943D01*
X100059577Y-119768216D01*
X100055624Y-119761369D01*
X99980524Y-119631290D01*
X99980518Y-119631282D01*
X99936819Y-119587583D01*
X99903334Y-119526260D01*
X99900500Y-119499902D01*
X99900500Y-118217255D01*
X99920185Y-118150216D01*
X99936819Y-118129574D01*
X101429574Y-116636819D01*
X101490897Y-116603334D01*
X101517255Y-116600500D01*
X101579055Y-116600500D01*
X101579057Y-116600500D01*
X101731784Y-116559577D01*
X101868716Y-116480520D01*
X101980520Y-116368716D01*
X102059577Y-116231784D01*
X102100500Y-116079057D01*
X102100500Y-115920943D01*
X102059577Y-115768216D01*
X102059573Y-115768209D01*
X101980524Y-115631290D01*
X101980518Y-115631282D01*
X101868717Y-115519481D01*
X101868709Y-115519475D01*
X101731790Y-115440426D01*
X101731786Y-115440424D01*
X101731784Y-115440423D01*
X101579057Y-115399500D01*
X101420943Y-115399500D01*
X101268216Y-115440423D01*
X101268209Y-115440426D01*
X101131290Y-115519475D01*
X101131282Y-115519481D01*
X101019481Y-115631282D01*
X101019475Y-115631290D01*
X100940426Y-115768209D01*
X100940423Y-115768216D01*
X100899500Y-115920943D01*
X100899500Y-115982745D01*
X100879815Y-116049784D01*
X100863181Y-116070426D01*
X99179522Y-117754084D01*
X99179518Y-117754090D01*
X99126792Y-117845412D01*
X99126793Y-117845413D01*
X99099500Y-117947273D01*
X99099500Y-119499902D01*
X99079815Y-119566941D01*
X99063181Y-119587583D01*
X99019481Y-119631282D01*
X99019475Y-119631290D01*
X98940426Y-119768209D01*
X98940423Y-119768216D01*
X98899500Y-119920943D01*
X95500500Y-119920943D01*
X95500500Y-111447273D01*
X107599500Y-111447273D01*
X107599500Y-123552726D01*
X107626793Y-123654589D01*
X107653156Y-123700250D01*
X107679520Y-123745913D01*
X118154087Y-134220480D01*
X118245412Y-134273207D01*
X118347273Y-134300500D01*
X118778222Y-134300500D01*
X118845261Y-134320185D01*
X118891016Y-134372989D01*
X118901396Y-134438790D01*
X118899500Y-134455128D01*
X118899500Y-134455136D01*
X118899501Y-134825500D01*
X118879817Y-134892539D01*
X118827013Y-134938294D01*
X118775501Y-134949500D01*
X117279386Y-134949500D01*
X117212347Y-134929815D01*
X117191705Y-134913181D01*
X116586095Y-134307570D01*
X116564262Y-134274895D01*
X116563641Y-134275254D01*
X116480524Y-134131290D01*
X116480518Y-134131282D01*
X116368717Y-134019481D01*
X116368709Y-134019475D01*
X116231790Y-133940426D01*
X116231786Y-133940424D01*
X116231784Y-133940423D01*
X116079057Y-133899500D01*
X115920943Y-133899500D01*
X115768216Y-133940423D01*
X115768209Y-133940426D01*
X115631290Y-134019475D01*
X115631282Y-134019481D01*
X115519481Y-134131282D01*
X115519475Y-134131290D01*
X115440426Y-134268209D01*
X115440423Y-134268216D01*
X115399500Y-134420943D01*
X115399500Y-134579056D01*
X115440423Y-134731783D01*
X115440426Y-134731790D01*
X115519475Y-134868709D01*
X115519479Y-134868714D01*
X115519480Y-134868716D01*
X115631284Y-134980520D01*
X115631286Y-134980521D01*
X115631290Y-134980524D01*
X115775254Y-135063641D01*
X115774895Y-135064262D01*
X115807570Y-135086095D01*
X116661986Y-135940510D01*
X116661987Y-135940511D01*
X116661989Y-135940512D01*
X116682244Y-135952206D01*
X116760843Y-135997585D01*
X116787515Y-136012984D01*
X116927525Y-136050500D01*
X116927526Y-136050500D01*
X116927528Y-136050500D01*
X118599138Y-136050500D01*
X118666177Y-136070185D01*
X118686819Y-136086819D01*
X118700000Y-136100000D01*
X120500000Y-136100000D01*
X120500000Y-136052172D01*
X120499999Y-136052155D01*
X120493598Y-135992627D01*
X120493596Y-135992620D01*
X120443354Y-135857913D01*
X120443352Y-135857911D01*
X120357190Y-135742813D01*
X120357185Y-135742807D01*
X120350185Y-135737567D01*
X120308316Y-135681632D01*
X120300499Y-135638307D01*
X120300499Y-135255136D01*
X120300497Y-135255117D01*
X120297586Y-135230012D01*
X120297585Y-135230011D01*
X120297585Y-135230009D01*
X120262294Y-135150083D01*
X120253223Y-135080809D01*
X120262291Y-135049922D01*
X120297585Y-134969991D01*
X120300500Y-134944865D01*
X120300499Y-134455136D01*
X120300497Y-134455117D01*
X120297586Y-134430012D01*
X120297585Y-134430011D01*
X120297585Y-134430009D01*
X120262294Y-134350083D01*
X120253223Y-134280809D01*
X120262291Y-134249922D01*
X120297585Y-134169991D01*
X120300500Y-134144865D01*
X120300499Y-133655136D01*
X120300497Y-133655117D01*
X120297586Y-133630012D01*
X120297585Y-133630011D01*
X120297585Y-133630009D01*
X120262294Y-133550083D01*
X120253223Y-133480809D01*
X120262291Y-133449922D01*
X120297585Y-133369991D01*
X120300500Y-133344865D01*
X120300499Y-132855136D01*
X120300497Y-132855117D01*
X120297586Y-132830012D01*
X120297585Y-132830011D01*
X120297585Y-132830009D01*
X120262294Y-132750083D01*
X120253223Y-132680809D01*
X120262291Y-132649922D01*
X120297585Y-132569991D01*
X120300500Y-132544865D01*
X120300499Y-132055136D01*
X120299076Y-132042865D01*
X120297586Y-132030012D01*
X120297585Y-132030011D01*
X120297585Y-132030009D01*
X120262294Y-131950083D01*
X120253223Y-131880809D01*
X120262291Y-131849922D01*
X120297585Y-131769991D01*
X120300500Y-131744865D01*
X120300499Y-131255136D01*
X120300497Y-131255117D01*
X120297586Y-131230012D01*
X120297585Y-131230011D01*
X120297585Y-131230009D01*
X120262294Y-131150083D01*
X120253223Y-131080809D01*
X120262291Y-131049922D01*
X120297585Y-130969991D01*
X120300500Y-130944865D01*
X120300499Y-130455136D01*
X120300497Y-130455117D01*
X120297586Y-130430012D01*
X120297585Y-130430011D01*
X120297585Y-130430009D01*
X120262294Y-130350083D01*
X120253223Y-130280809D01*
X120262291Y-130249922D01*
X120297585Y-130169991D01*
X120300500Y-130144865D01*
X120300499Y-129761695D01*
X120320183Y-129694657D01*
X120350189Y-129662428D01*
X120357190Y-129657186D01*
X120443352Y-129542088D01*
X120443354Y-129542086D01*
X120493596Y-129407379D01*
X120493598Y-129407372D01*
X120499999Y-129347844D01*
X120500000Y-129347827D01*
X120500000Y-129300000D01*
X118700000Y-129300000D01*
X118700000Y-129347828D01*
X118701550Y-129362245D01*
X118698770Y-129377652D01*
X118700998Y-129393147D01*
X118692693Y-129411331D01*
X118689144Y-129431004D01*
X118678476Y-129442461D01*
X118671973Y-129456703D01*
X118655156Y-129467510D01*
X118641534Y-129482142D01*
X118625577Y-129486519D01*
X118613195Y-129494477D01*
X118578260Y-129499500D01*
X118559958Y-129499500D01*
X118492919Y-129479815D01*
X118472277Y-129463181D01*
X116761251Y-127752155D01*
X118700000Y-127752155D01*
X118700000Y-127900000D01*
X119300000Y-127900000D01*
X119300000Y-127300000D01*
X119152155Y-127300000D01*
X119092627Y-127306401D01*
X119092620Y-127306403D01*
X118957913Y-127356645D01*
X118957906Y-127356649D01*
X118842812Y-127442809D01*
X118842809Y-127442812D01*
X118756649Y-127557906D01*
X118756645Y-127557913D01*
X118706403Y-127692620D01*
X118706401Y-127692627D01*
X118700000Y-127752155D01*
X116761251Y-127752155D01*
X112242521Y-123233425D01*
X112209036Y-123172102D01*
X112214020Y-123102410D01*
X112255892Y-123046477D01*
X112321356Y-123022060D01*
X112362296Y-123025969D01*
X112368838Y-123027722D01*
X112368842Y-123027724D01*
X112521569Y-123068647D01*
X112521572Y-123068647D01*
X112679681Y-123068647D01*
X112679683Y-123068647D01*
X112832410Y-123027724D01*
X112910727Y-122982507D01*
X112978622Y-122966036D01*
X113034723Y-122982509D01*
X113168210Y-123059577D01*
X113320937Y-123100500D01*
X113320939Y-123100500D01*
X113479049Y-123100500D01*
X113479051Y-123100500D01*
X113631778Y-123059577D01*
X113737998Y-122998251D01*
X113805895Y-122981779D01*
X113861992Y-122998251D01*
X113968213Y-123059577D01*
X114120940Y-123100500D01*
X114120942Y-123100500D01*
X114279052Y-123100500D01*
X114279054Y-123100500D01*
X114431781Y-123059577D01*
X114538001Y-122998251D01*
X114605898Y-122981779D01*
X114661995Y-122998251D01*
X114768216Y-123059577D01*
X114920943Y-123100500D01*
X114920945Y-123100500D01*
X115079055Y-123100500D01*
X115079057Y-123100500D01*
X115231784Y-123059577D01*
X115368716Y-122980520D01*
X115412319Y-122936917D01*
X115473642Y-122903432D01*
X115543334Y-122908416D01*
X115587681Y-122936917D01*
X115631284Y-122980520D01*
X115631286Y-122980521D01*
X115631290Y-122980524D01*
X115713044Y-123027724D01*
X115768216Y-123059577D01*
X115920943Y-123100500D01*
X115920945Y-123100500D01*
X116079055Y-123100500D01*
X116079057Y-123100500D01*
X116231784Y-123059577D01*
X116368716Y-122980520D01*
X116412319Y-122936917D01*
X116473642Y-122903432D01*
X116543334Y-122908416D01*
X116587681Y-122936917D01*
X116631284Y-122980520D01*
X116631286Y-122980521D01*
X116631290Y-122980524D01*
X116713044Y-123027724D01*
X116768216Y-123059577D01*
X116920943Y-123100500D01*
X116920945Y-123100500D01*
X117079055Y-123100500D01*
X117079057Y-123100500D01*
X117231784Y-123059577D01*
X117368716Y-122980520D01*
X117480520Y-122868716D01*
X117559577Y-122731784D01*
X117600500Y-122579057D01*
X117600500Y-122524500D01*
X117620185Y-122457461D01*
X117672989Y-122411706D01*
X117724500Y-122400500D01*
X118499902Y-122400500D01*
X118566941Y-122420185D01*
X118587583Y-122436819D01*
X118631284Y-122480520D01*
X118631286Y-122480521D01*
X118631290Y-122480524D01*
X118707460Y-122524500D01*
X118768216Y-122559577D01*
X118920943Y-122600500D01*
X118920945Y-122600500D01*
X119075500Y-122600500D01*
X119142539Y-122620185D01*
X119188294Y-122672989D01*
X119199500Y-122724500D01*
X119199500Y-124652726D01*
X119226793Y-124754589D01*
X119234657Y-124768209D01*
X119279520Y-124845913D01*
X119279522Y-124845915D01*
X120263181Y-125829574D01*
X120296666Y-125890897D01*
X120299500Y-125917255D01*
X120299500Y-127236763D01*
X120279815Y-127303802D01*
X120227011Y-127349557D01*
X120157853Y-127359501D01*
X120132168Y-127352945D01*
X120007382Y-127306403D01*
X120007372Y-127306401D01*
X119947844Y-127300000D01*
X119800000Y-127300000D01*
X119800000Y-128026000D01*
X119780315Y-128093039D01*
X119727511Y-128138794D01*
X119676000Y-128150000D01*
X119550000Y-128150000D01*
X119550000Y-128276000D01*
X119530315Y-128343039D01*
X119477511Y-128388794D01*
X119426000Y-128400000D01*
X118700000Y-128400000D01*
X118700000Y-128547844D01*
X118706401Y-128607372D01*
X118706403Y-128607380D01*
X118724786Y-128656667D01*
X118729770Y-128726359D01*
X118724786Y-128743333D01*
X118706403Y-128792619D01*
X118706401Y-128792627D01*
X118700000Y-128852155D01*
X118700000Y-128900000D01*
X120443653Y-128900000D01*
X120451543Y-128900456D01*
X120451553Y-128900293D01*
X120455115Y-128900497D01*
X120455135Y-128900500D01*
X120944864Y-128900499D01*
X120944879Y-128900497D01*
X120944882Y-128900497D01*
X120969986Y-128897586D01*
X120969987Y-128897585D01*
X120969991Y-128897585D01*
X121049917Y-128862294D01*
X121119190Y-128853223D01*
X121150081Y-128862293D01*
X121230009Y-128897585D01*
X121255135Y-128900500D01*
X121638303Y-128900499D01*
X121705342Y-128920183D01*
X121737566Y-128950184D01*
X121742808Y-128957186D01*
X121742812Y-128957190D01*
X121857906Y-129043350D01*
X121857913Y-129043354D01*
X121992620Y-129093596D01*
X121992627Y-129093598D01*
X122052155Y-129099999D01*
X122052172Y-129100000D01*
X122100000Y-129100000D01*
X122100000Y-127300000D01*
X122500000Y-127300000D01*
X122500000Y-129100000D01*
X122547828Y-129100000D01*
X122547844Y-129099999D01*
X122607372Y-129093598D01*
X122607379Y-129093596D01*
X122742086Y-129043354D01*
X122742088Y-129043352D01*
X122857188Y-128957189D01*
X122862429Y-128950189D01*
X122918363Y-128908317D01*
X122961692Y-128900499D01*
X123344864Y-128900499D01*
X123344879Y-128900497D01*
X123344882Y-128900497D01*
X123369986Y-128897586D01*
X123369987Y-128897585D01*
X123369991Y-128897585D01*
X123449917Y-128862294D01*
X123519190Y-128853223D01*
X123550081Y-128862293D01*
X123630009Y-128897585D01*
X123655135Y-128900500D01*
X124144864Y-128900499D01*
X124144879Y-128900497D01*
X124144882Y-128900497D01*
X124169986Y-128897586D01*
X124169987Y-128897585D01*
X124169991Y-128897585D01*
X124249917Y-128862294D01*
X124319190Y-128853223D01*
X124350081Y-128862293D01*
X124430009Y-128897585D01*
X124455135Y-128900500D01*
X124944864Y-128900499D01*
X124944879Y-128900497D01*
X124944882Y-128900497D01*
X124969986Y-128897586D01*
X124969987Y-128897585D01*
X124969991Y-128897585D01*
X125049917Y-128862294D01*
X125119190Y-128853223D01*
X125150081Y-128862293D01*
X125230009Y-128897585D01*
X125255135Y-128900500D01*
X125744864Y-128900499D01*
X125744879Y-128900497D01*
X125744882Y-128900497D01*
X125769986Y-128897586D01*
X125769987Y-128897585D01*
X125769991Y-128897585D01*
X125849917Y-128862294D01*
X125919190Y-128853223D01*
X125950081Y-128862293D01*
X126030009Y-128897585D01*
X126055135Y-128900500D01*
X126544864Y-128900499D01*
X126544879Y-128900497D01*
X126544882Y-128900497D01*
X126569986Y-128897586D01*
X126569987Y-128897585D01*
X126569991Y-128897585D01*
X126649917Y-128862294D01*
X126719190Y-128853223D01*
X126750081Y-128862293D01*
X126830009Y-128897585D01*
X126855135Y-128900500D01*
X127344864Y-128900499D01*
X127344879Y-128900497D01*
X127344882Y-128900497D01*
X127369986Y-128897586D01*
X127369987Y-128897585D01*
X127369991Y-128897585D01*
X127449917Y-128862294D01*
X127519190Y-128853223D01*
X127550081Y-128862293D01*
X127630009Y-128897585D01*
X127655135Y-128900500D01*
X128144864Y-128900499D01*
X128144879Y-128900497D01*
X128144882Y-128900497D01*
X128169986Y-128897586D01*
X128169987Y-128897585D01*
X128169991Y-128897585D01*
X128249917Y-128862294D01*
X128319190Y-128853223D01*
X128350081Y-128862293D01*
X128430009Y-128897585D01*
X128455135Y-128900500D01*
X128944864Y-128900499D01*
X128944879Y-128900497D01*
X128944882Y-128900497D01*
X128969986Y-128897586D01*
X128969987Y-128897585D01*
X128969991Y-128897585D01*
X129049917Y-128862294D01*
X129119190Y-128853223D01*
X129150081Y-128862293D01*
X129230009Y-128897585D01*
X129255135Y-128900500D01*
X129744864Y-128900499D01*
X129744879Y-128900497D01*
X129744882Y-128900497D01*
X129769986Y-128897586D01*
X129769987Y-128897585D01*
X129769991Y-128897585D01*
X129849917Y-128862294D01*
X129919190Y-128853223D01*
X129950081Y-128862293D01*
X130030009Y-128897585D01*
X130055135Y-128900500D01*
X130544864Y-128900499D01*
X130557933Y-128898983D01*
X130561214Y-128898603D01*
X130630075Y-128910433D01*
X130681609Y-128957613D01*
X130699500Y-129021777D01*
X130699500Y-129344856D01*
X130699502Y-129344882D01*
X130702413Y-129369987D01*
X130702414Y-129369988D01*
X130702414Y-129369990D01*
X130702415Y-129369991D01*
X130737704Y-129449913D01*
X130746776Y-129519191D01*
X130737705Y-129550085D01*
X130702415Y-129630009D01*
X130699500Y-129655131D01*
X130699500Y-130144856D01*
X130699502Y-130144882D01*
X130702413Y-130169987D01*
X130702414Y-130169988D01*
X130702414Y-130169990D01*
X130702415Y-130169991D01*
X130737704Y-130249913D01*
X130746776Y-130319191D01*
X130737705Y-130350085D01*
X130702415Y-130430009D01*
X130699500Y-130455131D01*
X130699500Y-130944856D01*
X130699502Y-130944882D01*
X130702413Y-130969987D01*
X130702414Y-130969988D01*
X130702414Y-130969990D01*
X130702415Y-130969991D01*
X130737704Y-131049913D01*
X130746776Y-131119191D01*
X130737705Y-131150083D01*
X130732332Y-131162254D01*
X130702415Y-131230009D01*
X130699500Y-131255131D01*
X130699500Y-131744856D01*
X130699502Y-131744882D01*
X130702413Y-131769987D01*
X130702414Y-131769988D01*
X130702414Y-131769990D01*
X130702415Y-131769991D01*
X130737704Y-131849913D01*
X130746776Y-131919191D01*
X130737705Y-131950083D01*
X130707066Y-132019475D01*
X130702415Y-132030009D01*
X130699500Y-132055131D01*
X130699500Y-132544856D01*
X130699502Y-132544882D01*
X130702413Y-132569987D01*
X130702414Y-132569988D01*
X130702414Y-132569990D01*
X130702415Y-132569991D01*
X130737704Y-132649913D01*
X130746776Y-132719191D01*
X130737705Y-132750085D01*
X130702415Y-132830009D01*
X130699500Y-132855131D01*
X130699500Y-133344856D01*
X130699502Y-133344882D01*
X130702413Y-133369987D01*
X130702414Y-133369988D01*
X130702414Y-133369990D01*
X130702415Y-133369991D01*
X130737704Y-133449913D01*
X130746776Y-133519191D01*
X130737705Y-133550085D01*
X130702415Y-133630009D01*
X130699500Y-133655131D01*
X130699500Y-134144856D01*
X130699502Y-134144882D01*
X130702413Y-134169987D01*
X130702414Y-134169988D01*
X130702414Y-134169990D01*
X130702415Y-134169991D01*
X130737704Y-134249913D01*
X130746776Y-134319191D01*
X130737705Y-134350085D01*
X130702415Y-134430009D01*
X130699500Y-134455131D01*
X130699500Y-134944856D01*
X130699502Y-134944882D01*
X130702413Y-134969987D01*
X130702414Y-134969988D01*
X130702414Y-134969990D01*
X130702415Y-134969991D01*
X130737704Y-135049913D01*
X130746776Y-135119191D01*
X130737705Y-135150085D01*
X130702415Y-135230009D01*
X130699500Y-135255131D01*
X130699500Y-135744856D01*
X130699502Y-135744882D01*
X130702413Y-135769987D01*
X130702414Y-135769988D01*
X130702414Y-135769990D01*
X130702415Y-135769991D01*
X130737704Y-135849913D01*
X130746776Y-135919191D01*
X130737705Y-135950085D01*
X130702415Y-136030009D01*
X130699500Y-136055131D01*
X130699500Y-136544856D01*
X130699502Y-136544882D01*
X130702413Y-136569987D01*
X130702414Y-136569988D01*
X130702414Y-136569990D01*
X130702415Y-136569991D01*
X130737704Y-136649913D01*
X130746776Y-136719191D01*
X130737705Y-136750085D01*
X130702415Y-136830009D01*
X130699500Y-136855131D01*
X130699500Y-136978260D01*
X130679815Y-137045299D01*
X130627011Y-137091054D01*
X130562245Y-137101550D01*
X130547828Y-137100000D01*
X130500000Y-137100000D01*
X130500000Y-137800000D01*
X132300000Y-137800000D01*
X132300000Y-137652172D01*
X132299999Y-137652155D01*
X132293598Y-137592627D01*
X132293596Y-137592620D01*
X132243354Y-137457913D01*
X132243352Y-137457911D01*
X132157190Y-137342813D01*
X132157185Y-137342807D01*
X132150185Y-137337567D01*
X132108316Y-137281632D01*
X132100499Y-137238307D01*
X132100499Y-136855136D01*
X132100497Y-136855117D01*
X132097586Y-136830012D01*
X132097585Y-136830011D01*
X132097585Y-136830009D01*
X132062294Y-136750083D01*
X132053223Y-136680809D01*
X132062291Y-136649922D01*
X132097585Y-136569991D01*
X132100500Y-136544865D01*
X132100499Y-136055136D01*
X132100497Y-136055117D01*
X132097586Y-136030012D01*
X132097585Y-136030011D01*
X132097585Y-136030009D01*
X132062294Y-135950083D01*
X132053223Y-135880809D01*
X132062291Y-135849922D01*
X132097585Y-135769991D01*
X132100500Y-135744865D01*
X132100499Y-135255136D01*
X132100497Y-135255117D01*
X132097586Y-135230012D01*
X132097585Y-135230011D01*
X132097585Y-135230009D01*
X132062294Y-135150083D01*
X132053223Y-135080809D01*
X132062291Y-135049922D01*
X132097585Y-134969991D01*
X132100500Y-134944865D01*
X132100499Y-134455136D01*
X132098603Y-134438786D01*
X132110433Y-134369925D01*
X132157613Y-134318391D01*
X132221777Y-134300500D01*
X132652725Y-134300500D01*
X132652727Y-134300500D01*
X132754588Y-134273207D01*
X132845913Y-134220480D01*
X133832701Y-133233692D01*
X133885427Y-133142367D01*
X133885428Y-133142366D01*
X133912721Y-133040506D01*
X133912721Y-132000098D01*
X133932406Y-131933059D01*
X133949040Y-131912417D01*
X133965806Y-131895651D01*
X133992741Y-131868716D01*
X134071798Y-131731784D01*
X134112721Y-131579057D01*
X134112721Y-131420943D01*
X134071798Y-131268216D01*
X134064246Y-131255135D01*
X133992745Y-131131290D01*
X133992739Y-131131282D01*
X133880938Y-131019481D01*
X133880930Y-131019475D01*
X133744011Y-130940426D01*
X133744007Y-130940424D01*
X133744005Y-130940423D01*
X133591278Y-130899500D01*
X133433164Y-130899500D01*
X133280437Y-130940423D01*
X133280430Y-130940426D01*
X133143511Y-131019475D01*
X133143503Y-131019481D01*
X133031702Y-131131282D01*
X133031696Y-131131290D01*
X132952647Y-131268209D01*
X132952644Y-131268216D01*
X132911721Y-131420943D01*
X132911721Y-131579056D01*
X132954748Y-131739635D01*
X132952411Y-131740260D01*
X132958563Y-131797528D01*
X132927282Y-131860004D01*
X132867190Y-131895651D01*
X132836535Y-131899500D01*
X132756644Y-131899500D01*
X132603917Y-131940423D01*
X132603910Y-131940426D01*
X132466991Y-132019475D01*
X132466983Y-132019481D01*
X132355182Y-132131282D01*
X132355178Y-132131287D01*
X132331886Y-132171631D01*
X132281319Y-132219847D01*
X132212712Y-132233069D01*
X132147847Y-132207101D01*
X132107319Y-132150187D01*
X132103724Y-132137729D01*
X132100499Y-132123867D01*
X132100499Y-132055136D01*
X132097585Y-132030009D01*
X132057590Y-131939428D01*
X132054954Y-131928098D01*
X132056308Y-131904370D01*
X132053223Y-131880809D01*
X132058722Y-131862078D01*
X132058936Y-131858342D01*
X132060419Y-131856299D01*
X132062291Y-131849922D01*
X132097585Y-131769991D01*
X132100500Y-131744865D01*
X132100499Y-131255136D01*
X132100497Y-131255117D01*
X132097586Y-131230012D01*
X132097585Y-131230011D01*
X132097585Y-131230009D01*
X132062294Y-131150083D01*
X132053223Y-131080809D01*
X132062291Y-131049922D01*
X132097585Y-130969991D01*
X132100500Y-130944865D01*
X132100499Y-130455136D01*
X132100497Y-130455117D01*
X132097586Y-130430012D01*
X132097585Y-130430011D01*
X132097585Y-130430009D01*
X132062294Y-130350083D01*
X132053223Y-130280809D01*
X132062291Y-130249922D01*
X132097585Y-130169991D01*
X132100500Y-130144865D01*
X132100499Y-129655136D01*
X132100497Y-129655117D01*
X132097586Y-129630012D01*
X132097585Y-129630011D01*
X132097585Y-129630009D01*
X132062294Y-129550083D01*
X132053223Y-129480809D01*
X132062291Y-129449922D01*
X132097585Y-129369991D01*
X132100500Y-129344865D01*
X132100499Y-128961695D01*
X132120183Y-128894657D01*
X132150189Y-128862428D01*
X132157190Y-128857186D01*
X132243352Y-128742088D01*
X132243354Y-128742086D01*
X132293596Y-128607379D01*
X132293598Y-128607372D01*
X132299999Y-128547844D01*
X132300000Y-128547827D01*
X132300000Y-128400000D01*
X131574000Y-128400000D01*
X131506961Y-128380315D01*
X131461206Y-128327511D01*
X131450000Y-128276000D01*
X131450000Y-128150000D01*
X131324000Y-128150000D01*
X131256961Y-128130315D01*
X131211206Y-128077511D01*
X131200000Y-128026000D01*
X131200000Y-127900000D01*
X131700000Y-127900000D01*
X132300000Y-127900000D01*
X132300000Y-127752172D01*
X132299999Y-127752155D01*
X132293598Y-127692627D01*
X132293596Y-127692620D01*
X132243354Y-127557913D01*
X132243350Y-127557906D01*
X132157190Y-127442812D01*
X132157187Y-127442809D01*
X132042093Y-127356649D01*
X132042086Y-127356645D01*
X131907379Y-127306403D01*
X131907372Y-127306401D01*
X131847844Y-127300000D01*
X131700000Y-127300000D01*
X131700000Y-127900000D01*
X131200000Y-127900000D01*
X131200000Y-127300000D01*
X131052155Y-127300000D01*
X130992627Y-127306401D01*
X130992620Y-127306403D01*
X130857913Y-127356645D01*
X130857906Y-127356649D01*
X130742814Y-127442808D01*
X130742806Y-127442816D01*
X130725456Y-127465992D01*
X130669521Y-127507862D01*
X130599829Y-127512844D01*
X130576110Y-127505116D01*
X130569992Y-127502415D01*
X130544865Y-127499500D01*
X130055143Y-127499500D01*
X130055124Y-127499502D01*
X130038780Y-127501397D01*
X129969920Y-127489564D01*
X129918388Y-127442380D01*
X129900500Y-127378222D01*
X129900500Y-126500098D01*
X129920185Y-126433059D01*
X129936819Y-126412417D01*
X129980520Y-126368716D01*
X130059577Y-126231784D01*
X130100500Y-126079057D01*
X130100500Y-125920943D01*
X130059577Y-125768216D01*
X130006155Y-125675685D01*
X129980524Y-125631290D01*
X129980518Y-125631282D01*
X129868717Y-125519481D01*
X129868709Y-125519475D01*
X129731790Y-125440426D01*
X129731786Y-125440424D01*
X129731784Y-125440423D01*
X129579057Y-125399500D01*
X129420943Y-125399500D01*
X129268216Y-125440423D01*
X129268209Y-125440426D01*
X129131290Y-125519475D01*
X129131282Y-125519481D01*
X129019481Y-125631282D01*
X129019475Y-125631290D01*
X128940426Y-125768209D01*
X128940423Y-125768216D01*
X128899500Y-125920943D01*
X128899500Y-126079056D01*
X128940423Y-126231783D01*
X128940426Y-126231790D01*
X129019475Y-126368709D01*
X129019481Y-126368717D01*
X129063181Y-126412417D01*
X129096666Y-126473740D01*
X129099500Y-126500098D01*
X129099500Y-127378222D01*
X129079815Y-127445261D01*
X129027011Y-127491016D01*
X128961210Y-127501396D01*
X128944867Y-127499500D01*
X128455143Y-127499500D01*
X128455117Y-127499502D01*
X128430013Y-127502413D01*
X128409286Y-127511564D01*
X128350083Y-127537705D01*
X128280808Y-127546776D01*
X128249913Y-127537704D01*
X128169992Y-127502415D01*
X128144865Y-127499500D01*
X127655143Y-127499500D01*
X127655117Y-127499502D01*
X127630013Y-127502413D01*
X127609286Y-127511564D01*
X127550083Y-127537705D01*
X127480808Y-127546776D01*
X127449913Y-127537704D01*
X127369992Y-127502415D01*
X127344865Y-127499500D01*
X126855143Y-127499500D01*
X126855117Y-127499502D01*
X126830013Y-127502413D01*
X126809286Y-127511564D01*
X126750083Y-127537705D01*
X126680808Y-127546776D01*
X126649913Y-127537704D01*
X126569992Y-127502415D01*
X126544865Y-127499500D01*
X126055143Y-127499500D01*
X126055117Y-127499502D01*
X126030013Y-127502413D01*
X126009286Y-127511564D01*
X125950083Y-127537705D01*
X125880808Y-127546776D01*
X125849913Y-127537704D01*
X125769992Y-127502415D01*
X125744865Y-127499500D01*
X125255143Y-127499500D01*
X125255117Y-127499502D01*
X125230013Y-127502413D01*
X125209286Y-127511564D01*
X125150083Y-127537705D01*
X125080808Y-127546776D01*
X125049913Y-127537704D01*
X124969992Y-127502415D01*
X124944865Y-127499500D01*
X124455143Y-127499500D01*
X124455117Y-127499502D01*
X124430013Y-127502413D01*
X124409286Y-127511564D01*
X124350083Y-127537705D01*
X124280808Y-127546776D01*
X124249913Y-127537704D01*
X124169992Y-127502415D01*
X124144865Y-127499500D01*
X123655143Y-127499500D01*
X123655117Y-127499502D01*
X123630013Y-127502413D01*
X123609286Y-127511564D01*
X123550083Y-127537705D01*
X123480808Y-127546776D01*
X123449913Y-127537704D01*
X123369992Y-127502415D01*
X123344868Y-127499500D01*
X122961696Y-127499500D01*
X122894657Y-127479815D01*
X122862428Y-127449810D01*
X122857189Y-127442811D01*
X122857185Y-127442808D01*
X122742093Y-127356649D01*
X122742086Y-127356645D01*
X122607379Y-127306403D01*
X122607372Y-127306401D01*
X122547844Y-127300000D01*
X122500000Y-127300000D01*
X122100000Y-127300000D01*
X122052155Y-127300000D01*
X121992627Y-127306401D01*
X121992620Y-127306403D01*
X121857913Y-127356645D01*
X121857906Y-127356649D01*
X121742814Y-127442808D01*
X121742804Y-127442817D01*
X121737567Y-127449814D01*
X121681632Y-127491683D01*
X121638303Y-127499500D01*
X121255143Y-127499500D01*
X121255124Y-127499502D01*
X121238780Y-127501397D01*
X121169920Y-127489564D01*
X121118388Y-127442380D01*
X121100500Y-127378222D01*
X121100500Y-125675685D01*
X121120185Y-125608646D01*
X121172989Y-125562891D01*
X121242147Y-125552947D01*
X121260246Y-125557913D01*
X121260365Y-125557473D01*
X121268214Y-125559576D01*
X121268216Y-125559577D01*
X121420943Y-125600500D01*
X121420945Y-125600500D01*
X121579055Y-125600500D01*
X121579057Y-125600500D01*
X121731784Y-125559577D01*
X121868716Y-125480520D01*
X121980520Y-125368716D01*
X122059577Y-125231784D01*
X122100500Y-125079057D01*
X122100500Y-124920943D01*
X122059577Y-124768216D01*
X121992900Y-124652727D01*
X121980524Y-124631290D01*
X121980518Y-124631282D01*
X121868717Y-124519481D01*
X121868709Y-124519475D01*
X121724746Y-124436359D01*
X121725104Y-124435738D01*
X121692428Y-124413904D01*
X121086819Y-123808294D01*
X121053334Y-123746971D01*
X121050500Y-123720613D01*
X121050500Y-113674500D01*
X121070185Y-113607461D01*
X121122989Y-113561706D01*
X121174500Y-113550500D01*
X124572472Y-113550500D01*
X124572474Y-113550500D01*
X124572475Y-113550500D01*
X124712485Y-113512984D01*
X124838015Y-113440510D01*
X126692431Y-111586092D01*
X126725104Y-111564262D01*
X126724745Y-111563640D01*
X126731780Y-111559577D01*
X126731784Y-111559577D01*
X126868716Y-111480520D01*
X126980520Y-111368716D01*
X127059577Y-111231784D01*
X127100500Y-111079057D01*
X127100500Y-110920943D01*
X127059577Y-110768216D01*
X127049094Y-110750058D01*
X126980524Y-110631290D01*
X126980521Y-110631286D01*
X126980520Y-110631284D01*
X126868716Y-110519480D01*
X126868714Y-110519479D01*
X126868709Y-110519475D01*
X126731790Y-110440426D01*
X126731786Y-110440424D01*
X126731784Y-110440423D01*
X126579057Y-110399500D01*
X126420943Y-110399500D01*
X126268216Y-110440423D01*
X126268209Y-110440426D01*
X126131290Y-110519475D01*
X126131282Y-110519481D01*
X126019481Y-110631282D01*
X126019479Y-110631285D01*
X125999601Y-110665715D01*
X125940423Y-110768216D01*
X125940422Y-110768218D01*
X125936361Y-110775253D01*
X125935740Y-110774894D01*
X125913906Y-110807567D01*
X124308294Y-112413181D01*
X124246971Y-112446666D01*
X124220613Y-112449500D01*
X120047629Y-112449500D01*
X120026383Y-112443261D01*
X120004295Y-112441682D01*
X119993511Y-112433609D01*
X119980590Y-112429815D01*
X119966090Y-112413081D01*
X119948362Y-112399810D01*
X119943654Y-112387189D01*
X119934835Y-112377011D01*
X119931683Y-112355093D01*
X119923945Y-112334346D01*
X119926807Y-112321185D01*
X119924891Y-112307853D01*
X119934090Y-112287709D01*
X119938797Y-112266073D01*
X119952065Y-112248347D01*
X119953916Y-112244297D01*
X119959948Y-112237819D01*
X119995261Y-112202506D01*
X120056584Y-112169021D01*
X120082942Y-112166187D01*
X120144742Y-112166187D01*
X120144744Y-112166187D01*
X120297471Y-112125264D01*
X120434403Y-112046207D01*
X120546207Y-111934403D01*
X120625264Y-111797471D01*
X120666187Y-111644744D01*
X120666187Y-111486630D01*
X120625264Y-111333903D01*
X120579183Y-111254087D01*
X120546211Y-111196977D01*
X120546205Y-111196969D01*
X120434404Y-111085168D01*
X120434396Y-111085162D01*
X120297477Y-111006113D01*
X120297472Y-111006110D01*
X120179001Y-110974366D01*
X120119341Y-110938000D01*
X120091320Y-110886684D01*
X120059577Y-110768216D01*
X120049094Y-110750058D01*
X119980524Y-110631290D01*
X119980521Y-110631286D01*
X119980520Y-110631284D01*
X119868716Y-110519480D01*
X119868714Y-110519479D01*
X119868709Y-110519475D01*
X119731790Y-110440426D01*
X119731786Y-110440424D01*
X119731784Y-110440423D01*
X119579057Y-110399500D01*
X119420943Y-110399500D01*
X119268216Y-110440423D01*
X119268209Y-110440426D01*
X119131290Y-110519475D01*
X119131282Y-110519481D01*
X119087583Y-110563181D01*
X119026260Y-110596666D01*
X118999902Y-110599500D01*
X117583890Y-110599500D01*
X117482028Y-110626793D01*
X117439547Y-110651320D01*
X117439543Y-110651322D01*
X117432227Y-110655547D01*
X117390704Y-110679520D01*
X117347563Y-110722660D01*
X117341393Y-110727446D01*
X117315841Y-110737475D01*
X117291754Y-110750628D01*
X117283787Y-110750058D01*
X117276354Y-110752976D01*
X117249442Y-110747600D01*
X117222063Y-110745642D01*
X117215668Y-110740855D01*
X117207838Y-110739291D01*
X117188104Y-110720219D01*
X117166130Y-110703769D01*
X117158011Y-110691459D01*
X117143150Y-110665718D01*
X117143146Y-110665713D01*
X117031345Y-110553912D01*
X117031337Y-110553906D01*
X116894418Y-110474857D01*
X116894414Y-110474855D01*
X116894412Y-110474854D01*
X116741685Y-110433931D01*
X116583571Y-110433931D01*
X116430844Y-110474854D01*
X116430843Y-110474854D01*
X116314251Y-110542168D01*
X116246351Y-110558640D01*
X116190252Y-110542167D01*
X116150958Y-110519481D01*
X116056050Y-110464686D01*
X115903323Y-110423763D01*
X115745209Y-110423763D01*
X115592482Y-110464686D01*
X115592481Y-110464686D01*
X115495144Y-110520883D01*
X115427243Y-110537354D01*
X115371146Y-110520882D01*
X115231790Y-110440426D01*
X115231786Y-110440424D01*
X115231784Y-110440423D01*
X115079057Y-110399500D01*
X114920943Y-110399500D01*
X114768216Y-110440423D01*
X114768209Y-110440426D01*
X114631283Y-110519479D01*
X114625487Y-110523927D01*
X114560318Y-110549120D01*
X114491873Y-110535081D01*
X114474519Y-110523927D01*
X114468722Y-110519479D01*
X114331796Y-110440426D01*
X114331792Y-110440424D01*
X114331790Y-110440423D01*
X114179063Y-110399500D01*
X114020949Y-110399500D01*
X113868222Y-110440423D01*
X113868221Y-110440423D01*
X113762003Y-110501747D01*
X113694102Y-110518218D01*
X113638005Y-110501747D01*
X113531787Y-110440423D01*
X113469611Y-110423763D01*
X113379060Y-110399500D01*
X113220946Y-110399500D01*
X113068219Y-110440423D01*
X113068218Y-110440423D01*
X112962000Y-110501747D01*
X112894099Y-110518218D01*
X112838002Y-110501747D01*
X112731784Y-110440423D01*
X112669608Y-110423763D01*
X112579057Y-110399500D01*
X112420943Y-110399500D01*
X112268216Y-110440423D01*
X112268209Y-110440426D01*
X112131290Y-110519475D01*
X112131282Y-110519481D01*
X112019481Y-110631282D01*
X112019475Y-110631290D01*
X111940426Y-110768209D01*
X111940423Y-110768216D01*
X111899500Y-110920943D01*
X111899500Y-111079057D01*
X111931095Y-111196969D01*
X111940423Y-111231783D01*
X111940424Y-111231786D01*
X111996217Y-111328422D01*
X112012830Y-111390422D01*
X112012830Y-111731680D01*
X111993145Y-111798719D01*
X111970589Y-111824908D01*
X111963330Y-111831273D01*
X111963330Y-112198252D01*
X111960779Y-112206937D01*
X111962068Y-112215898D01*
X111949815Y-112254546D01*
X111927683Y-112297981D01*
X111927682Y-112297984D01*
X111912830Y-112391761D01*
X111912830Y-112391766D01*
X111912830Y-112391767D01*
X111912830Y-113254087D01*
X111912831Y-113273286D01*
X111912831Y-114154803D01*
X111927684Y-114248590D01*
X111927684Y-114248591D01*
X111937010Y-114266894D01*
X111949814Y-114292023D01*
X111950322Y-114294726D01*
X111952124Y-114296806D01*
X111963330Y-114348317D01*
X111963330Y-114715296D01*
X111963331Y-114715297D01*
X112019957Y-114707843D01*
X112019963Y-114707841D01*
X112165917Y-114647386D01*
X112165919Y-114647384D01*
X112293604Y-114549409D01*
X112358773Y-114524215D01*
X112369073Y-114523785D01*
X112544848Y-114523785D01*
X112638634Y-114508932D01*
X112682035Y-114486817D01*
X112750702Y-114473921D01*
X112794622Y-114486816D01*
X112838024Y-114508931D01*
X112838028Y-114508933D01*
X112931805Y-114523785D01*
X112931811Y-114523786D01*
X113194848Y-114523785D01*
X113288634Y-114508932D01*
X113332035Y-114486817D01*
X113400702Y-114473921D01*
X113444622Y-114486816D01*
X113488024Y-114508931D01*
X113488028Y-114508933D01*
X113581805Y-114523785D01*
X113581811Y-114523786D01*
X113844848Y-114523785D01*
X113938634Y-114508932D01*
X113982035Y-114486817D01*
X114050702Y-114473921D01*
X114094622Y-114486816D01*
X114138024Y-114508931D01*
X114138028Y-114508933D01*
X114231805Y-114523785D01*
X114231811Y-114523786D01*
X114494848Y-114523785D01*
X114588634Y-114508932D01*
X114632035Y-114486817D01*
X114700702Y-114473921D01*
X114744622Y-114486816D01*
X114788024Y-114508931D01*
X114788028Y-114508933D01*
X114881805Y-114523785D01*
X114881811Y-114523786D01*
X115144848Y-114523785D01*
X115238634Y-114508932D01*
X115282035Y-114486817D01*
X115350702Y-114473921D01*
X115394622Y-114486816D01*
X115438024Y-114508931D01*
X115438028Y-114508933D01*
X115531805Y-114523785D01*
X115531811Y-114523786D01*
X115794848Y-114523785D01*
X115888634Y-114508932D01*
X115932035Y-114486817D01*
X116000702Y-114473921D01*
X116044622Y-114486816D01*
X116088024Y-114508931D01*
X116088028Y-114508933D01*
X116181805Y-114523785D01*
X116181811Y-114523786D01*
X116444848Y-114523785D01*
X116538634Y-114508932D01*
X116582035Y-114486817D01*
X116650702Y-114473921D01*
X116694622Y-114486816D01*
X116738024Y-114508931D01*
X116738028Y-114508933D01*
X116831805Y-114523785D01*
X116831811Y-114523786D01*
X117094848Y-114523785D01*
X117188634Y-114508932D01*
X117232035Y-114486817D01*
X117300702Y-114473921D01*
X117344622Y-114486816D01*
X117388024Y-114508931D01*
X117388028Y-114508933D01*
X117481805Y-114523785D01*
X117481811Y-114523786D01*
X117744848Y-114523785D01*
X117838634Y-114508932D01*
X117951672Y-114451336D01*
X118041380Y-114361628D01*
X118098976Y-114248590D01*
X118098976Y-114248588D01*
X118098977Y-114248587D01*
X118113829Y-114154810D01*
X118113830Y-114154805D01*
X118113829Y-113679807D01*
X118133513Y-113612769D01*
X118186317Y-113567014D01*
X118255476Y-113557070D01*
X118269900Y-113560028D01*
X118420943Y-113600500D01*
X118420946Y-113600500D01*
X118579055Y-113600500D01*
X118579057Y-113600500D01*
X118731784Y-113559577D01*
X118731785Y-113559576D01*
X118739635Y-113557473D01*
X118739820Y-113558165D01*
X118778363Y-113550500D01*
X119825500Y-113550500D01*
X119892539Y-113570185D01*
X119938294Y-113622989D01*
X119949500Y-113674500D01*
X119949500Y-121235215D01*
X119929815Y-121302254D01*
X119877011Y-121348009D01*
X119807853Y-121357953D01*
X119744297Y-121328928D01*
X119737819Y-121322896D01*
X118367730Y-119952808D01*
X118367728Y-119952806D01*
X118276403Y-119900079D01*
X118205734Y-119881143D01*
X118146075Y-119844779D01*
X118115546Y-119781932D01*
X118113829Y-119761369D01*
X118113829Y-119391768D01*
X118112592Y-119383955D01*
X118098976Y-119297982D01*
X118041380Y-119184944D01*
X118041376Y-119184940D01*
X118041375Y-119184938D01*
X117951677Y-119095240D01*
X117951674Y-119095238D01*
X117951672Y-119095236D01*
X117874847Y-119056091D01*
X117838631Y-119037638D01*
X117744854Y-119022786D01*
X117481812Y-119022786D01*
X117388023Y-119037640D01*
X117388021Y-119037641D01*
X117344623Y-119059754D01*
X117275954Y-119072650D01*
X117232036Y-119059754D01*
X117213413Y-119050265D01*
X117188633Y-119037639D01*
X117188629Y-119037638D01*
X117094854Y-119022786D01*
X116831812Y-119022786D01*
X116738023Y-119037640D01*
X116738021Y-119037641D01*
X116694623Y-119059754D01*
X116625954Y-119072650D01*
X116582036Y-119059754D01*
X116563413Y-119050265D01*
X116538633Y-119037639D01*
X116538629Y-119037638D01*
X116444854Y-119022786D01*
X116181812Y-119022786D01*
X116088023Y-119037640D01*
X116088021Y-119037641D01*
X116044623Y-119059754D01*
X115975954Y-119072650D01*
X115932036Y-119059754D01*
X115913413Y-119050265D01*
X115888633Y-119037639D01*
X115888629Y-119037638D01*
X115794854Y-119022786D01*
X115531812Y-119022786D01*
X115438023Y-119037640D01*
X115438021Y-119037641D01*
X115394623Y-119059754D01*
X115325954Y-119072650D01*
X115282036Y-119059754D01*
X115263413Y-119050265D01*
X115238633Y-119037639D01*
X115238629Y-119037638D01*
X115144854Y-119022786D01*
X114881812Y-119022786D01*
X114788023Y-119037640D01*
X114788021Y-119037641D01*
X114744623Y-119059754D01*
X114675954Y-119072650D01*
X114632036Y-119059754D01*
X114613413Y-119050265D01*
X114588633Y-119037639D01*
X114588629Y-119037638D01*
X114494854Y-119022786D01*
X114231812Y-119022786D01*
X114138023Y-119037640D01*
X114138021Y-119037641D01*
X114094623Y-119059754D01*
X114025954Y-119072650D01*
X113982036Y-119059754D01*
X113963413Y-119050265D01*
X113938633Y-119037639D01*
X113938629Y-119037638D01*
X113844854Y-119022786D01*
X113581812Y-119022786D01*
X113488023Y-119037640D01*
X113488021Y-119037641D01*
X113444623Y-119059754D01*
X113375954Y-119072650D01*
X113332036Y-119059754D01*
X113313413Y-119050265D01*
X113288633Y-119037639D01*
X113288629Y-119037638D01*
X113194854Y-119022786D01*
X112931812Y-119022786D01*
X112838023Y-119037640D01*
X112838021Y-119037641D01*
X112794623Y-119059754D01*
X112725954Y-119072650D01*
X112682036Y-119059754D01*
X112663413Y-119050265D01*
X112638633Y-119037639D01*
X112638629Y-119037638D01*
X112544854Y-119022786D01*
X112281812Y-119022786D01*
X112188023Y-119037640D01*
X112188021Y-119037641D01*
X112144623Y-119059754D01*
X112075954Y-119072650D01*
X112032036Y-119059754D01*
X112013413Y-119050265D01*
X111988633Y-119037639D01*
X111988629Y-119037638D01*
X111894854Y-119022786D01*
X111631812Y-119022786D01*
X111538023Y-119037640D01*
X111538021Y-119037641D01*
X111494623Y-119059754D01*
X111425954Y-119072650D01*
X111382036Y-119059754D01*
X111363413Y-119050265D01*
X111338633Y-119037639D01*
X111338629Y-119037638D01*
X111244854Y-119022786D01*
X111069088Y-119022786D01*
X111002049Y-119003101D01*
X110993601Y-118997162D01*
X110865916Y-118899185D01*
X110719961Y-118838730D01*
X110663330Y-118831273D01*
X110663330Y-119198252D01*
X110649815Y-119254546D01*
X110627683Y-119297981D01*
X110627682Y-119297984D01*
X110612830Y-119391761D01*
X110612830Y-120149286D01*
X110593145Y-120216325D01*
X110588149Y-120223527D01*
X110438649Y-120423527D01*
X110414057Y-120441962D01*
X110390841Y-120462080D01*
X110385743Y-120463188D01*
X110382745Y-120465437D01*
X110371763Y-120466230D01*
X110339330Y-120473286D01*
X109763331Y-120473286D01*
X109763331Y-121162610D01*
X109778772Y-121279914D01*
X109778774Y-121279919D01*
X109839229Y-121425871D01*
X109935406Y-121551212D01*
X110050986Y-121639899D01*
X110092189Y-121696327D01*
X110099500Y-121738275D01*
X110099500Y-122675708D01*
X110126793Y-122777571D01*
X110153156Y-122823232D01*
X110179520Y-122868895D01*
X110179522Y-122868897D01*
X117998682Y-130688057D01*
X118032167Y-130749380D01*
X118027183Y-130819072D01*
X117985311Y-130875005D01*
X117927197Y-130898676D01*
X117920946Y-130899499D01*
X117768216Y-130940423D01*
X117768209Y-130940426D01*
X117631290Y-131019475D01*
X117631286Y-131019478D01*
X117521994Y-131128770D01*
X117460671Y-131162254D01*
X117390979Y-131157270D01*
X117346632Y-131128769D01*
X109436819Y-123218955D01*
X109403334Y-123157632D01*
X109400500Y-123131274D01*
X109400500Y-119383955D01*
X109763330Y-119383955D01*
X109763330Y-120073286D01*
X110263330Y-120073286D01*
X110263330Y-118831273D01*
X110206698Y-118838730D01*
X110060743Y-118899185D01*
X109935405Y-118995361D01*
X109839229Y-119120699D01*
X109778775Y-119266651D01*
X109778774Y-119266655D01*
X109763330Y-119383955D01*
X109400500Y-119383955D01*
X109400500Y-114024500D01*
X109420185Y-113957461D01*
X109472989Y-113911706D01*
X109524500Y-113900500D01*
X109838831Y-113900500D01*
X109905870Y-113920185D01*
X109951625Y-113972989D01*
X109962831Y-114024500D01*
X109962831Y-114154804D01*
X109977684Y-114248590D01*
X110035280Y-114361628D01*
X110035282Y-114361630D01*
X110035284Y-114361633D01*
X110124982Y-114451331D01*
X110124984Y-114451332D01*
X110124988Y-114451336D01*
X110238024Y-114508931D01*
X110238028Y-114508933D01*
X110331805Y-114523785D01*
X110331811Y-114523786D01*
X110594848Y-114523785D01*
X110688634Y-114508932D01*
X110732035Y-114486817D01*
X110800702Y-114473921D01*
X110844622Y-114486816D01*
X110888024Y-114508931D01*
X110888028Y-114508933D01*
X110981805Y-114523785D01*
X110981811Y-114523786D01*
X111157571Y-114523785D01*
X111224610Y-114543469D01*
X111233058Y-114549409D01*
X111360744Y-114647386D01*
X111506696Y-114707841D01*
X111506702Y-114707843D01*
X111563328Y-114715297D01*
X111563330Y-114715296D01*
X111563330Y-114348317D01*
X111565706Y-114338419D01*
X111564592Y-114330670D01*
X111570864Y-114316935D01*
X111576845Y-114292023D01*
X111598976Y-114248590D01*
X111598976Y-114248588D01*
X111598977Y-114248587D01*
X111613829Y-114154810D01*
X111613830Y-114154805D01*
X111613829Y-112391768D01*
X111598976Y-112297982D01*
X111585884Y-112272287D01*
X111576845Y-112254547D01*
X111576141Y-112251618D01*
X111574536Y-112249765D01*
X111572802Y-112237708D01*
X111563330Y-112198253D01*
X111563330Y-111831273D01*
X111506701Y-111838729D01*
X111362957Y-111898269D01*
X111293487Y-111905737D01*
X111231008Y-111874461D01*
X111227824Y-111871388D01*
X110535958Y-111179522D01*
X110535957Y-111179521D01*
X110535956Y-111179520D01*
X110490293Y-111153156D01*
X110444632Y-111126793D01*
X110393700Y-111113146D01*
X110342770Y-111099500D01*
X108052727Y-111099500D01*
X107947273Y-111099500D01*
X107845413Y-111126793D01*
X107845410Y-111126794D01*
X107754085Y-111179521D01*
X107679521Y-111254085D01*
X107626794Y-111345410D01*
X107626793Y-111345413D01*
X107599500Y-111447273D01*
X95500500Y-111447273D01*
X95500500Y-107397097D01*
X96919897Y-107397097D01*
X96919897Y-107508669D01*
X97739567Y-107508669D01*
X97719822Y-107528414D01*
X97670453Y-107613924D01*
X97644897Y-107709299D01*
X97644897Y-107808039D01*
X97670453Y-107903414D01*
X97719822Y-107988924D01*
X97739567Y-108008669D01*
X96919897Y-108008669D01*
X96919897Y-108120240D01*
X96946982Y-108291253D01*
X97000488Y-108455926D01*
X97079092Y-108610193D01*
X97180864Y-108750271D01*
X97303294Y-108872701D01*
X97443372Y-108974473D01*
X97597641Y-109053077D01*
X97762312Y-109106583D01*
X97762311Y-109106583D01*
X97769896Y-109107784D01*
X97769897Y-109107783D01*
X97769897Y-108038999D01*
X97789642Y-108058744D01*
X97875152Y-108108113D01*
X97970527Y-108133669D01*
X98069267Y-108133669D01*
X98164642Y-108108113D01*
X98250152Y-108058744D01*
X98269897Y-108038999D01*
X98269897Y-109107784D01*
X98277481Y-109106583D01*
X98442152Y-109053077D01*
X98596421Y-108974473D01*
X98736499Y-108872701D01*
X98858933Y-108750267D01*
X98961930Y-108608502D01*
X99017260Y-108565835D01*
X99086873Y-108559856D01*
X99148668Y-108592461D01*
X99177604Y-108635897D01*
X99185535Y-108656011D01*
X99276974Y-108776591D01*
X99397553Y-108868029D01*
X99397554Y-108868029D01*
X99397555Y-108868030D01*
X99538333Y-108923546D01*
X99626795Y-108934169D01*
X99626800Y-108934169D01*
X100412994Y-108934169D01*
X100412999Y-108934169D01*
X100501461Y-108923546D01*
X100642239Y-108868030D01*
X100762819Y-108776591D01*
X100854258Y-108656011D01*
X100909774Y-108515233D01*
X100920397Y-108426771D01*
X100920397Y-107090567D01*
X100909774Y-107002105D01*
X100854258Y-106861327D01*
X100854257Y-106861326D01*
X100854257Y-106861325D01*
X100762819Y-106740746D01*
X100642240Y-106649308D01*
X100501458Y-106593791D01*
X100455823Y-106588311D01*
X100412999Y-106583169D01*
X99626795Y-106583169D01*
X99587750Y-106587857D01*
X99538335Y-106593791D01*
X99397553Y-106649308D01*
X99276974Y-106740746D01*
X99185535Y-106861327D01*
X99177603Y-106881442D01*
X99134697Y-106936586D01*
X99068789Y-106959778D01*
X99000805Y-106943657D01*
X98961930Y-106908836D01*
X98858929Y-106767066D01*
X98736499Y-106644636D01*
X98596421Y-106542864D01*
X98442154Y-106464260D01*
X98277486Y-106410756D01*
X98277478Y-106410754D01*
X98269897Y-106409553D01*
X98269897Y-107478339D01*
X98250152Y-107458594D01*
X98164642Y-107409225D01*
X98069267Y-107383669D01*
X97970527Y-107383669D01*
X97875152Y-107409225D01*
X97789642Y-107458594D01*
X97769897Y-107478339D01*
X97769897Y-106409553D01*
X97769896Y-106409553D01*
X97762315Y-106410754D01*
X97762307Y-106410756D01*
X97597639Y-106464260D01*
X97443372Y-106542864D01*
X97303294Y-106644636D01*
X97180864Y-106767066D01*
X97079092Y-106907144D01*
X97000488Y-107061411D01*
X96946982Y-107226084D01*
X96919897Y-107397097D01*
X95500500Y-107397097D01*
X95500500Y-101124500D01*
X95520185Y-101057461D01*
X95572989Y-101011706D01*
X95624500Y-101000500D01*
X135875500Y-101000500D01*
X135942539Y-101020185D01*
G37*
%TD.AperFunction*%
%TD*%
M02*
